<?xml version="1.0" encoding="UTF-8" standalone="no"?>
<!-- Created with Inkscape (http://www.inkscape.org/) -->

<svg
   version="1.1"
   id="svg2"
   xml:space="preserve"
   width="564.96643"
   height="205.67558"
   viewBox="0 0 564.96643 205.67557"
   sodipodi:docname="LAB3.svg"
   inkscape:version="1.1.1 (3bf5ae0d25, 2021-09-20)"
   inkscape:export-filename="/home/tomkys144/Documents/CTU/b212/EMA/LAB/LAB3.png"
   inkscape:export-xdpi="96"
   inkscape:export-ydpi="96"
   xmlns:inkscape="http://www.inkscape.org/namespaces/inkscape"
   xmlns:sodipodi="http://sodipodi.sourceforge.net/DTD/sodipodi-0.dtd"
   xmlns="http://www.w3.org/2000/svg"
   xmlns:svg="http://www.w3.org/2000/svg"><defs
     id="defs6"><clipPath
       clipPathUnits="userSpaceOnUse"
       id="clipPath800"><path
         d="m 130.26,313.46 h 3.6 v 5.52 h -3.6 z"
         id="path798" /></clipPath></defs><sodipodi:namedview
     id="namedview4"
     pagecolor="#ffffff"
     bordercolor="#666666"
     borderopacity="1.0"
     inkscape:pageshadow="2"
     inkscape:pageopacity="0.0"
     inkscape:pagecheckerboard="0"
     showgrid="false"
     inkscape:zoom="0.56116385"
     inkscape:cx="241.46245"
     inkscape:cy="-27.621166"
     inkscape:window-width="1920"
     inkscape:window-height="1004"
     inkscape:window-x="0"
     inkscape:window-y="0"
     inkscape:window-maximized="1"
     inkscape:current-layer="g8" /><g
     id="g8"
     inkscape:groupmode="layer"
     inkscape:label="A1B38EMAUloha3delic"
     transform="matrix(1.3333333,0,0,-1.3333333,-113.01333,532.71557)"><path
       d="m 85.98,288.44 80.34,0.42"
       style="fill:none;stroke:#000000;stroke-width:1;stroke-linecap:butt;stroke-linejoin:round;stroke-miterlimit:10;stroke-dasharray:none;stroke-opacity:1"
       id="path506" /><path
       d="m 117.06,288.62 v 1.2 l 0.06,0.42 0.06,0.36 0.12,0.42 v 0.42 l 0.12,0.36 0.12,0.36 0.12,0.42 0.18,0.42 0.18,0.36 0.12,0.36 0.18,0.3 0.36,0.72 0.24,0.36 0.18,0.36 0.24,0.3 0.24,0.3 0.24,0.3 0.24,0.36 0.3,0.3 0.24,0.3 0.3,0.24 0.3,0.24 0.24,0.24 0.36,0.24 0.3,0.24 0.3,0.24 0.36,0.24 0.3,0.18 0.36,0.18 0.36,0.24 0.36,0.18 0.36,0.18 0.72,0.24 0.42,0.12 0.36,0.12 0.42,0.06 0.42,0.12 0.42,0.12 0.36,0.06 h 0.42 l 0.84,0.12 h 1.26 l 0.42,-0.06 h 0.42 l 0.42,-0.06 0.42,-0.12 0.36,-0.06 0.36,-0.12 0.36,-0.12 0.84,-0.24 0.36,-0.18 0.36,-0.18 0.36,-0.12 0.3,-0.18 0.36,-0.18 0.36,-0.24 0.36,-0.24 0.3,-0.18 0.3,-0.24 0.36,-0.24 0.3,-0.24 0.3,-0.3 0.3,-0.3 0.24,-0.24 0.24,-0.3 0.24,-0.3 0.24,-0.3 0.3,-0.3 0.18,-0.36 0.24,-0.3 0.36,-0.72 0.24,-0.3 0.18,-0.42 0.18,-0.36 0.12,-0.36 0.18,-0.36 0.12,-0.36 0.12,-0.42 0.06,-0.36 0.12,-0.42 0.12,-0.42 0.06,-0.42 v -0.42 l 0.06,-0.36 0.06,-0.48 v -1.26 l -0.06,-0.42 V 287 l -0.06,-0.42 -0.12,-0.42 -0.06,-0.36 -0.12,-0.36 -0.12,-0.42 -0.12,-0.42 -0.12,-0.42 -0.18,-0.36 -0.18,-0.36 -0.12,-0.3 -0.24,-0.36 -0.12,-0.36 -0.24,-0.36 -0.24,-0.3 -0.24,-0.36 -0.18,-0.3 -0.3,-0.3 -0.24,-0.3 -0.3,-0.36 -0.3,-0.24 -0.24,-0.24 -0.3,-0.3 -0.24,-0.24 -0.36,-0.24 -0.3,-0.3 -0.3,-0.18 -0.36,-0.24 -0.36,-0.18 -0.3,-0.18 -0.36,-0.24 -0.36,-0.18 -0.42,-0.12 -0.36,-0.18 -0.36,-0.12 -0.42,-0.12 -0.72,-0.24 -0.48,-0.12 -0.36,-0.06 -0.42,-0.06 h -0.42 l -0.42,-0.12 h -2.04 l -0.84,0.12 -0.42,0.12 h -0.36 l -0.72,0.24 -0.42,0.12 -0.42,0.18 -0.36,0.18 -0.36,0.12 -0.36,0.18 -0.36,0.18 -0.36,0.18 -0.3,0.24 -0.36,0.18 -0.6,0.48 -0.36,0.24 -0.3,0.3 -0.3,0.24 -0.3,0.3 -0.24,0.3 -0.3,0.24 -0.24,0.3 -0.24,0.3 -0.24,0.3 -0.24,0.36 -0.18,0.3 -0.18,0.36 -0.18,0.36 -0.24,0.3 -0.18,0.42 -0.18,0.36 -0.12,0.36 -0.18,0.42 -0.06,0.36 -0.12,0.36 -0.12,0.42 -0.12,0.42 -0.06,0.42 -0.06,0.42 -0.06,0.36 -0.06,0.42 v 0.9"
       style="fill:#ffffff;fill-opacity:1;fill-rule:evenodd;stroke:none"
       id="path508" /><path
       d="m 117.06,288.62 v 1.2 l 0.06,0.42 0.06,0.36 0.12,0.42 v 0.42 l 0.12,0.36 0.12,0.36 0.12,0.42 0.18,0.42 0.18,0.36 0.12,0.36 0.18,0.3 0.36,0.72 0.24,0.36 0.18,0.36 0.24,0.3 0.24,0.3 0.24,0.3 0.24,0.36 0.3,0.3 0.24,0.3 0.3,0.24 0.3,0.24 0.24,0.24 0.36,0.24 0.3,0.24 0.3,0.24 0.36,0.24 0.3,0.18 0.36,0.18 0.36,0.24 0.36,0.18 0.36,0.18 0.72,0.24 0.42,0.12 0.36,0.12 0.42,0.06 0.42,0.12 0.42,0.12 0.36,0.06 h 0.42 l 0.84,0.12 h 1.26 l 0.42,-0.06 h 0.42 l 0.42,-0.06 0.42,-0.12 0.36,-0.06 0.36,-0.12 0.36,-0.12 0.84,-0.24 0.36,-0.18 0.36,-0.18 0.36,-0.12 0.3,-0.18 0.36,-0.18 0.36,-0.24 0.36,-0.24 0.3,-0.18 0.3,-0.24 0.36,-0.24 0.3,-0.24 0.3,-0.3 0.3,-0.3 0.24,-0.24 0.24,-0.3 0.24,-0.3 0.24,-0.3 0.3,-0.3 0.18,-0.36 0.24,-0.3 0.36,-0.72 0.24,-0.3 0.18,-0.42 0.18,-0.36 0.12,-0.36 0.18,-0.36 0.12,-0.36 0.12,-0.42 0.06,-0.36 0.12,-0.42 0.12,-0.42 0.06,-0.42 v -0.42 l 0.06,-0.36 0.06,-0.48 v -1.26 l -0.06,-0.42 V 287 l -0.06,-0.42 -0.12,-0.42 -0.06,-0.36 -0.12,-0.36 -0.12,-0.42 -0.12,-0.42 -0.12,-0.42 -0.18,-0.36 -0.18,-0.36 -0.12,-0.3 -0.24,-0.36 -0.12,-0.36 -0.24,-0.36 -0.24,-0.3 -0.24,-0.36 -0.18,-0.3 -0.3,-0.3 -0.24,-0.3 -0.3,-0.36 -0.3,-0.24 -0.24,-0.24 -0.3,-0.3 -0.24,-0.24 -0.36,-0.24 -0.3,-0.3 -0.3,-0.18 -0.36,-0.24 -0.36,-0.18 -0.3,-0.18 -0.36,-0.24 -0.36,-0.18 -0.42,-0.12 -0.36,-0.18 -0.36,-0.12 -0.42,-0.12 -0.72,-0.24 -0.48,-0.12 -0.36,-0.06 -0.42,-0.06 h -0.42 l -0.42,-0.12 h -2.04 l -0.84,0.12 -0.42,0.12 h -0.36 l -0.72,0.24 -0.42,0.12 -0.42,0.18 -0.36,0.18 -0.36,0.12 -0.36,0.18 -0.36,0.18 -0.36,0.18 -0.3,0.24 -0.36,0.18 -0.6,0.48 -0.36,0.24 -0.3,0.3 -0.3,0.24 -0.3,0.3 -0.24,0.3 -0.3,0.24 -0.24,0.3 -0.24,0.3 -0.24,0.3 -0.24,0.36 -0.18,0.3 -0.18,0.36 -0.18,0.36 -0.24,0.3 -0.18,0.42 -0.18,0.36 -0.12,0.36 -0.18,0.42 -0.06,0.36 -0.12,0.36 -0.12,0.42 -0.12,0.42 -0.06,0.42 -0.06,0.42 -0.06,0.36 -0.06,0.42 z"
       style="fill:none;stroke:#000000;stroke-width:1;stroke-linecap:round;stroke-linejoin:round;stroke-miterlimit:10;stroke-dasharray:none;stroke-opacity:1"
       id="path510" /><path
       d="M 497.4,371.06 V 338.54 M 87.24,258.98 h 79.98 m -79.56,78.84 h 412.5 m -413.04,33.24 0.54,-112.5"
       style="fill:none;stroke:#000000;stroke-width:1;stroke-linecap:butt;stroke-linejoin:round;stroke-miterlimit:10;stroke-dasharray:none;stroke-opacity:1"
       id="path512" /><path
       d="m 93.48,334.88 h 23.4 V 341 h -23.4 z"
       style="fill:#ffffff;fill-opacity:1;fill-rule:nonzero;stroke:none"
       id="path514" /><path
       d="m 116.88,341 h -23.4 v -6.12 h 23.4 z m -23.4,0 z"
       style="fill:none;stroke:#000000;stroke-width:1;stroke-linecap:round;stroke-linejoin:miter;stroke-miterlimit:8;stroke-dasharray:none;stroke-opacity:1"
       id="path516" /><path
       d="m 135.06,334.82 h 23.34 v 6.12 h -23.34 z"
       style="fill:#ffffff;fill-opacity:1;fill-rule:nonzero;stroke:none"
       id="path518" /><path
       d="m 158.4,340.94 h -23.34 v -6.06 h 23.34 z m -23.34,0 z"
       style="fill:none;stroke:#000000;stroke-width:1;stroke-linecap:round;stroke-linejoin:miter;stroke-miterlimit:8;stroke-dasharray:none;stroke-opacity:1"
       id="path520" /><path
       d="m 124.38,338.12 v 0.54 l 0.12,0.12 v 0.18 l 0.06,0.06 0.06,0.06 v 0.06 l 0.12,0.12 v 0.06 l 0.06,0.06 v 0.06 l 0.06,0.06 0.06,0.06 0.06,0.06 h 0.06 l 0.06,0.06 v 0.06 l 0.06,0.06 h 0.06 l 0.06,0.06 h 0.06 l 0.06,0.06 0.06,0.06 h 0.06 l 0.12,0.12 h 0.24 l 0.12,0.06 0.06,0.06 h 0.24 l 0.12,0.06 h 0.6 l 0.06,-0.06 h 0.12 l 0.06,-0.06 0.06,-0.06 h 0.12 l 0.12,-0.12 h 0.12 l 0.12,-0.12 0.12,-0.06 v -0.06 l 0.12,-0.12 h 0.06 v -0.06 l 0.06,-0.06 0.06,-0.06 v -0.06 l 0.06,-0.06 v -0.06 l 0.06,-0.06 0.06,-0.06 v -0.06 l 0.12,-0.12 v -0.3 l 0.06,-0.06 v -0.18 l 0.06,-0.06 v -0.78 l -0.06,-0.12 -0.06,-0.06 v -0.12 l -0.06,-0.12 h -0.06 v -0.12 l -0.06,-0.06 -0.06,-0.06 v -0.06 l -0.24,-0.24 v -0.06 h -0.06 l -0.06,-0.06 v -0.06 h -0.12 v -0.06 h -0.12 l -0.06,-0.06 h -0.06 l -0.12,-0.12 h -0.06 l -0.06,-0.06 h -0.18 l -0.06,-0.06 h -0.3 l -0.06,-0.06 h -0.78 l -0.12,0.06 h -0.06 l -0.06,0.06 h -0.06 l -0.12,0.12 h -0.06 l -0.06,0.06 h -0.06 l -0.12,0.06 -0.06,0.06 -0.06,0.06 -0.12,0.12 v 0.06 h -0.06 l -0.06,0.06 v 0.06 l -0.06,0.06 v 0.06 l -0.06,0.06 v 0.06 l -0.12,0.12 v 0.12 h -0.06 v 0.18 l -0.06,0.06 v 0.36 l -0.06,0.06 -0.06,0.12 v 0.06"
       style="fill:#ffffff;fill-opacity:1;fill-rule:evenodd;stroke:none"
       id="path522" /><path
       d="m 124.38,338.12 v 0.54 l 0.12,0.12 v 0.18 l 0.06,0.06 0.06,0.06 v 0.06 l 0.12,0.12 v 0.06 l 0.06,0.06 v 0.06 l 0.06,0.06 0.06,0.06 0.06,0.06 h 0.06 l 0.06,0.06 v 0.06 l 0.06,0.06 h 0.06 l 0.06,0.06 h 0.06 l 0.06,0.06 0.06,0.06 h 0.06 l 0.12,0.12 h 0.24 l 0.12,0.06 0.06,0.06 h 0.24 l 0.12,0.06 h 0.6 l 0.06,-0.06 h 0.12 l 0.06,-0.06 0.06,-0.06 h 0.12 l 0.12,-0.12 h 0.12 l 0.12,-0.12 0.12,-0.06 v -0.06 l 0.12,-0.12 h 0.06 v -0.06 l 0.06,-0.06 0.06,-0.06 v -0.06 l 0.06,-0.06 v -0.06 l 0.06,-0.06 0.06,-0.06 v -0.06 l 0.12,-0.12 v -0.3 l 0.06,-0.06 v -0.18 l 0.06,-0.06 v -0.78 l -0.06,-0.12 -0.06,-0.06 v -0.12 l -0.06,-0.12 h -0.06 v -0.12 l -0.06,-0.06 -0.06,-0.06 v -0.06 l -0.24,-0.24 v -0.06 h -0.06 l -0.06,-0.06 v -0.06 h -0.12 v -0.06 h -0.12 l -0.06,-0.06 h -0.06 l -0.12,-0.12 h -0.06 l -0.06,-0.06 h -0.18 l -0.06,-0.06 h -0.3 l -0.06,-0.06 h -0.78 l -0.12,0.06 h -0.06 l -0.06,0.06 h -0.06 l -0.12,0.12 h -0.06 l -0.06,0.06 h -0.06 l -0.12,0.06 -0.06,0.06 -0.06,0.06 -0.12,0.12 v 0.06 h -0.06 l -0.06,0.06 v 0.06 l -0.06,0.06 v 0.06 l -0.06,0.06 v 0.06 l -0.12,0.12 v 0.12 h -0.06 v 0.18 l -0.06,0.06 v 0.36 l -0.06,0.06 -0.06,0.12 z"
       style="fill:none;stroke:#000000;stroke-width:1;stroke-linecap:round;stroke-linejoin:round;stroke-miterlimit:10;stroke-dasharray:none;stroke-opacity:1"
       id="path524" /><path
       d="m 124.38,338.12 v 0.54 l 0.12,0.12 v 0.18 l 0.06,0.06 0.06,0.06 v 0.06 l 0.12,0.12 v 0.06 l 0.06,0.06 v 0.06 l 0.06,0.06 0.06,0.06 0.06,0.06 h 0.06 l 0.06,0.06 v 0.06 l 0.06,0.06 h 0.06 l 0.06,0.06 h 0.06 l 0.06,0.06 0.06,0.06 h 0.06 l 0.12,0.12 h 0.24 l 0.12,0.06 0.06,0.06 h 0.24 l 0.12,0.06 h 0.6 l 0.06,-0.06 h 0.12 l 0.06,-0.06 0.06,-0.06 h 0.12 l 0.12,-0.12 h 0.12 l 0.12,-0.12 0.12,-0.06 v -0.06 l 0.12,-0.12 h 0.06 v -0.06 l 0.06,-0.06 0.06,-0.06 v -0.06 l 0.06,-0.06 v -0.06 l 0.06,-0.06 0.06,-0.06 v -0.06 l 0.12,-0.12 v -0.3 l 0.06,-0.06 v -0.18 l 0.06,-0.06 v -0.78 l -0.06,-0.12 -0.06,-0.06 v -0.12 l -0.06,-0.12 h -0.06 v -0.12 l -0.06,-0.06 -0.06,-0.06 v -0.06 l -0.24,-0.24 v -0.06 h -0.06 l -0.06,-0.06 v -0.06 h -0.12 v -0.06 h -0.12 l -0.06,-0.06 h -0.06 l -0.12,-0.12 h -0.06 l -0.06,-0.06 h -0.18 l -0.06,-0.06 h -0.3 l -0.06,-0.06 h -0.78 l -0.12,0.06 h -0.06 l -0.06,0.06 h -0.06 l -0.12,0.12 h -0.06 l -0.06,0.06 h -0.06 l -0.12,0.06 -0.06,0.06 -0.06,0.06 -0.12,0.12 v 0.06 h -0.06 l -0.06,0.06 v 0.06 l -0.06,0.06 v 0.06 l -0.06,0.06 v 0.06 l -0.12,0.12 v 0.12 h -0.06 v 0.18 l -0.06,0.06 v 0.36 l -0.06,0.06 -0.06,0.12 v 0.06"
       style="fill:#ffffff;fill-opacity:1;fill-rule:evenodd;stroke:none"
       id="path526" /><path
       d="m 124.38,338.12 v 0.54 l 0.12,0.12 v 0.18 l 0.06,0.06 0.06,0.06 v 0.06 l 0.12,0.12 v 0.06 l 0.06,0.06 v 0.06 l 0.06,0.06 0.06,0.06 0.06,0.06 h 0.06 l 0.06,0.06 v 0.06 l 0.06,0.06 h 0.06 l 0.06,0.06 h 0.06 l 0.06,0.06 0.06,0.06 h 0.06 l 0.12,0.12 h 0.24 l 0.12,0.06 0.06,0.06 h 0.24 l 0.12,0.06 h 0.6 l 0.06,-0.06 h 0.12 l 0.06,-0.06 0.06,-0.06 h 0.12 l 0.12,-0.12 h 0.12 l 0.12,-0.12 0.12,-0.06 v -0.06 l 0.12,-0.12 h 0.06 v -0.06 l 0.06,-0.06 0.06,-0.06 v -0.06 l 0.06,-0.06 v -0.06 l 0.06,-0.06 0.06,-0.06 v -0.06 l 0.12,-0.12 v -0.3 l 0.06,-0.06 v -0.18 l 0.06,-0.06 v -0.78 l -0.06,-0.12 -0.06,-0.06 v -0.12 l -0.06,-0.12 h -0.06 v -0.12 l -0.06,-0.06 -0.06,-0.06 v -0.06 l -0.24,-0.24 v -0.06 h -0.06 l -0.06,-0.06 v -0.06 h -0.12 v -0.06 h -0.12 l -0.06,-0.06 h -0.06 l -0.12,-0.12 h -0.06 l -0.06,-0.06 h -0.18 l -0.06,-0.06 h -0.3 l -0.06,-0.06 h -0.78 l -0.12,0.06 h -0.06 l -0.06,0.06 h -0.06 l -0.12,0.12 h -0.06 l -0.06,0.06 h -0.06 l -0.12,0.06 -0.06,0.06 -0.06,0.06 -0.12,0.12 v 0.06 h -0.06 l -0.06,0.06 v 0.06 l -0.06,0.06 v 0.06 l -0.06,0.06 v 0.06 l -0.12,0.12 v 0.12 h -0.06 v 0.18 l -0.06,0.06 v 0.36 l -0.06,0.06 -0.06,0.12 z"
       style="fill:none;stroke:#000000;stroke-width:1;stroke-linecap:round;stroke-linejoin:round;stroke-miterlimit:10;stroke-dasharray:none;stroke-opacity:1"
       id="path528" /><path
       d="m 176.82,334.82 h 23.34 v 6.12 h -23.34 z"
       style="fill:#ffffff;fill-opacity:1;fill-rule:nonzero;stroke:none"
       id="path530" /><path
       d="m 200.16,340.94 h -23.34 v -6.06 h 23.34 z m -23.34,0 z"
       style="fill:none;stroke:#000000;stroke-width:1;stroke-linecap:round;stroke-linejoin:miter;stroke-miterlimit:8;stroke-dasharray:none;stroke-opacity:1"
       id="path532" /><path
       d="m 165.72,338.12 v 0.66 l 0.06,0.06 0.06,0.06 v 0.06 l 0.06,0.06 v 0.06 h 0.06 v 0.12 h 0.06 l 0.06,0.12 v 0.06 l 0.12,0.06 v 0.06 l 0.12,0.06 v 0.06 h 0.06 v 0.06 l 0.06,0.06 h 0.06 l 0.06,0.06 h 0.06 l 0.06,0.06 h 0.06 l 0.06,0.12 h 0.06 l 0.12,0.06 h 0.18 l 0.06,0.06 h 0.06 l 0.06,0.06 h 0.24 l 0.12,0.06 h 0.6 l 0.06,-0.06 h 0.12 l 0.06,-0.06 h 0.12 l 0.06,-0.06 h 0.06 v -0.06 h 0.06 l 0.06,-0.06 0.24,-0.12 0.06,-0.06 0.24,-0.24 0.06,-0.06 v -0.06 l 0.06,-0.06 v -0.06 l 0.06,-0.06 v -0.06 l 0.18,-0.18 v -0.24 l 0.06,-0.12 h 0.06 v -1.2 l -0.12,-0.12 v -0.12 l -0.12,-0.12 v -0.06 l -0.06,-0.06 v -0.06 l -0.06,-0.06 -0.06,-0.06 -0.06,-0.06 -0.06,-0.12 h -0.06 v -0.06 h -0.06 l -0.06,-0.06 -0.06,-0.06 h -0.06 l -0.06,-0.06 h -0.06 l -0.12,-0.12 h -0.06 l -0.06,-0.06 h -0.18 l -0.12,-0.06 h -0.06 l -0.06,-0.06 H 168 l -0.06,-0.06 h -0.66 l -0.06,0.06 h -0.06 l -0.06,0.06 h -0.06 l -0.06,0.06 h -0.12 v 0.06 h -0.06 l -0.06,0.06 h -0.06 l -0.06,0.06 h -0.06 l -0.12,0.12 -0.06,0.06 -0.18,0.18 v 0.06 l -0.06,0.06 -0.06,0.06 v 0.12 l -0.18,0.18 v 0.06 l -0.06,0.06 v 0.18 l -0.06,0.06 -0.06,0.12 v 0.48"
       style="fill:#ffffff;fill-opacity:1;fill-rule:evenodd;stroke:none"
       id="path534" /><path
       d="m 165.72,338.12 v 0.66 l 0.06,0.06 0.06,0.06 v 0.06 l 0.06,0.06 v 0.06 h 0.06 v 0.12 h 0.06 l 0.06,0.12 v 0.06 l 0.12,0.06 v 0.06 l 0.12,0.06 v 0.06 h 0.06 v 0.06 l 0.06,0.06 h 0.06 l 0.06,0.06 h 0.06 l 0.06,0.06 h 0.06 l 0.06,0.12 h 0.06 l 0.12,0.06 h 0.18 l 0.06,0.06 h 0.06 l 0.06,0.06 h 0.24 l 0.12,0.06 h 0.6 l 0.06,-0.06 h 0.12 l 0.06,-0.06 h 0.12 l 0.06,-0.06 h 0.06 v -0.06 h 0.06 l 0.06,-0.06 0.24,-0.12 0.06,-0.06 0.24,-0.24 0.06,-0.06 v -0.06 l 0.06,-0.06 v -0.06 l 0.06,-0.06 v -0.06 l 0.18,-0.18 v -0.24 l 0.06,-0.12 h 0.06 v -1.2 l -0.12,-0.12 v -0.12 l -0.12,-0.12 v -0.06 l -0.06,-0.06 v -0.06 l -0.06,-0.06 -0.06,-0.06 -0.06,-0.06 -0.06,-0.12 h -0.06 v -0.06 h -0.06 l -0.06,-0.06 -0.06,-0.06 h -0.06 l -0.06,-0.06 h -0.06 l -0.12,-0.12 h -0.06 l -0.06,-0.06 h -0.18 l -0.12,-0.06 h -0.06 l -0.06,-0.06 H 168 l -0.06,-0.06 h -0.66 l -0.06,0.06 h -0.06 l -0.06,0.06 h -0.06 l -0.06,0.06 h -0.12 v 0.06 h -0.06 l -0.06,0.06 h -0.06 l -0.06,0.06 h -0.06 l -0.12,0.12 -0.06,0.06 -0.18,0.18 v 0.06 l -0.06,0.06 -0.06,0.06 v 0.12 l -0.18,0.18 v 0.06 l -0.06,0.06 v 0.18 l -0.06,0.06 -0.06,0.12 z"
       style="fill:none;stroke:#000000;stroke-width:1;stroke-linecap:round;stroke-linejoin:round;stroke-miterlimit:10;stroke-dasharray:none;stroke-opacity:1"
       id="path536" /><path
       d="m 165.72,338.12 v 0.66 l 0.06,0.06 0.06,0.06 v 0.06 l 0.06,0.06 v 0.06 h 0.06 v 0.12 h 0.06 l 0.06,0.12 v 0.06 l 0.12,0.06 v 0.06 l 0.12,0.06 v 0.06 h 0.06 v 0.06 l 0.06,0.06 h 0.06 l 0.06,0.06 h 0.06 l 0.06,0.06 h 0.06 l 0.06,0.12 h 0.06 l 0.12,0.06 h 0.18 l 0.06,0.06 h 0.06 l 0.06,0.06 h 0.24 l 0.12,0.06 h 0.6 l 0.06,-0.06 h 0.12 l 0.06,-0.06 h 0.12 l 0.06,-0.06 h 0.06 v -0.06 h 0.06 l 0.06,-0.06 0.24,-0.12 0.06,-0.06 0.24,-0.24 0.06,-0.06 v -0.06 l 0.06,-0.06 v -0.06 l 0.06,-0.06 v -0.06 l 0.18,-0.18 v -0.24 l 0.06,-0.12 h 0.06 v -1.2 l -0.12,-0.12 v -0.12 l -0.12,-0.12 v -0.06 l -0.06,-0.06 v -0.06 l -0.06,-0.06 -0.06,-0.06 -0.06,-0.06 -0.06,-0.12 h -0.06 v -0.06 h -0.06 l -0.06,-0.06 -0.06,-0.06 h -0.06 l -0.06,-0.06 h -0.06 l -0.12,-0.12 h -0.06 l -0.06,-0.06 h -0.18 l -0.12,-0.06 h -0.06 l -0.06,-0.06 H 168 l -0.06,-0.06 h -0.66 l -0.06,0.06 h -0.06 l -0.06,0.06 h -0.06 l -0.06,0.06 h -0.12 v 0.06 h -0.06 l -0.06,0.06 h -0.06 l -0.06,0.06 h -0.06 l -0.12,0.12 -0.06,0.06 -0.18,0.18 v 0.06 l -0.06,0.06 -0.06,0.06 v 0.12 l -0.18,0.18 v 0.06 l -0.06,0.06 v 0.18 l -0.06,0.06 -0.06,0.12 v 0.48"
       style="fill:#ffffff;fill-opacity:1;fill-rule:evenodd;stroke:none"
       id="path538" /><path
       d="m 165.72,338.12 v 0.66 l 0.06,0.06 0.06,0.06 v 0.06 l 0.06,0.06 v 0.06 h 0.06 v 0.12 h 0.06 l 0.06,0.12 v 0.06 l 0.12,0.06 v 0.06 l 0.12,0.06 v 0.06 h 0.06 v 0.06 l 0.06,0.06 h 0.06 l 0.06,0.06 h 0.06 l 0.06,0.06 h 0.06 l 0.06,0.12 h 0.06 l 0.12,0.06 h 0.18 l 0.06,0.06 h 0.06 l 0.06,0.06 h 0.24 l 0.12,0.06 h 0.6 l 0.06,-0.06 h 0.12 l 0.06,-0.06 h 0.12 l 0.06,-0.06 h 0.06 v -0.06 h 0.06 l 0.06,-0.06 0.24,-0.12 0.06,-0.06 0.24,-0.24 0.06,-0.06 v -0.06 l 0.06,-0.06 v -0.06 l 0.06,-0.06 v -0.06 l 0.18,-0.18 v -0.24 l 0.06,-0.12 h 0.06 v -1.2 l -0.12,-0.12 v -0.12 l -0.12,-0.12 v -0.06 l -0.06,-0.06 v -0.06 l -0.06,-0.06 -0.06,-0.06 -0.06,-0.06 -0.06,-0.12 h -0.06 v -0.06 h -0.06 l -0.06,-0.06 -0.06,-0.06 h -0.06 l -0.06,-0.06 h -0.06 l -0.12,-0.12 h -0.06 l -0.06,-0.06 h -0.18 l -0.12,-0.06 h -0.06 l -0.06,-0.06 H 168 l -0.06,-0.06 h -0.66 l -0.06,0.06 h -0.06 l -0.06,0.06 h -0.06 l -0.06,0.06 h -0.12 v 0.06 h -0.06 l -0.06,0.06 h -0.06 l -0.06,0.06 h -0.06 l -0.12,0.12 -0.06,0.06 -0.18,0.18 v 0.06 l -0.06,0.06 -0.06,0.06 v 0.12 l -0.18,0.18 v 0.06 l -0.06,0.06 v 0.18 l -0.06,0.06 -0.06,0.12 z"
       style="fill:none;stroke:#000000;stroke-width:1;stroke-linecap:round;stroke-linejoin:round;stroke-miterlimit:10;stroke-dasharray:none;stroke-opacity:1"
       id="path540" /><path
       d="m 217.62,334.82 h 23.34 v 6.12 h -23.34 z"
       style="fill:#ffffff;fill-opacity:1;fill-rule:nonzero;stroke:none"
       id="path542" /><path
       d="m 240.96,340.94 h -23.34 v -6.06 h 23.34 z m -23.34,0 z"
       style="fill:none;stroke:#000000;stroke-width:1;stroke-linecap:round;stroke-linejoin:miter;stroke-miterlimit:8;stroke-dasharray:none;stroke-opacity:1"
       id="path544" /><path
       d="m 206.94,337.88 v 0.54 l 0.06,0.06 v 0.06 l 0.06,0.06 v 0.06 l 0.06,0.06 v 0.06 l 0.06,0.06 v 0.06 l 0.06,0.06 0.06,0.06 v 0.12 l 0.18,0.18 0.06,0.06 h 0.06 v 0.06 l 0.06,0.06 h 0.06 l 0.12,0.12 h 0.12 l 0.18,0.18 h 0.06 l 0.06,0.06 h 0.18 l 0.12,0.12 h 1.14 l 0.12,-0.06 0.06,-0.06 h 0.06 l 0.06,-0.06 0.24,-0.12 0.06,-0.06 h 0.06 l 0.06,-0.12 h 0.06 l 0.12,-0.12 v -0.06 h 0.06 l 0.06,-0.06 v -0.06 l 0.12,-0.12 v -0.06 l 0.06,-0.06 0.06,-0.06 v -0.12 l 0.06,-0.06 v -0.18 l 0.06,-0.06 v -0.06 l 0.06,-0.06 v -0.18 l 0.06,-0.06 v -0.78 l -0.06,-0.12 -0.06,-0.06 v -0.12 l -0.06,-0.06 v -0.06 h -0.06 v -0.06 l -0.06,-0.06 v -0.06 l -0.06,-0.06 v -0.12 h -0.06 l -0.06,-0.06 -0.06,-0.06 -0.06,-0.06 v -0.06 h -0.06 l -0.06,-0.06 -0.06,-0.06 h -0.06 l -0.06,-0.06 h -0.06 l -0.06,-0.06 h -0.06 l -0.12,-0.12 -0.06,-0.06 h -0.24 l -0.06,-0.06 -0.12,-0.06 h -1.14 l -0.12,0.12 h -0.12 v 0.06 l -0.24,0.12 h -0.06 l -0.12,0.12 -0.06,0.06 -0.12,0.12 -0.06,0.06 -0.06,0.06 v 0.06 l -0.12,0.12 v 0.12 l -0.12,0.06 v 0.06 l -0.06,0.06 v 0.18 l -0.06,0.12 v 0.06 L 207,337.4 v 0.3 l -0.06,0.06 v 0.12"
       style="fill:#ffffff;fill-opacity:1;fill-rule:evenodd;stroke:none"
       id="path546" /><path
       d="m 206.94,337.88 v 0.54 l 0.06,0.06 v 0.06 l 0.06,0.06 v 0.06 l 0.06,0.06 v 0.06 l 0.06,0.06 v 0.06 l 0.06,0.06 0.06,0.06 v 0.12 l 0.18,0.18 0.06,0.06 h 0.06 v 0.06 l 0.06,0.06 h 0.06 l 0.12,0.12 h 0.12 l 0.18,0.18 h 0.06 l 0.06,0.06 h 0.18 l 0.12,0.12 h 1.14 l 0.12,-0.06 0.06,-0.06 h 0.06 l 0.06,-0.06 0.24,-0.12 0.06,-0.06 h 0.06 l 0.06,-0.12 h 0.06 l 0.12,-0.12 v -0.06 h 0.06 l 0.06,-0.06 v -0.06 l 0.12,-0.12 v -0.06 l 0.06,-0.06 0.06,-0.06 v -0.12 l 0.06,-0.06 v -0.18 l 0.06,-0.06 v -0.06 l 0.06,-0.06 v -0.18 l 0.06,-0.06 v -0.78 l -0.06,-0.12 -0.06,-0.06 v -0.12 l -0.06,-0.06 v -0.06 h -0.06 v -0.06 l -0.06,-0.06 v -0.06 l -0.06,-0.06 v -0.12 h -0.06 l -0.06,-0.06 -0.06,-0.06 -0.06,-0.06 v -0.06 h -0.06 l -0.06,-0.06 -0.06,-0.06 h -0.06 l -0.06,-0.06 h -0.06 l -0.06,-0.06 h -0.06 l -0.12,-0.12 -0.06,-0.06 h -0.24 l -0.06,-0.06 -0.12,-0.06 h -1.14 l -0.12,0.12 h -0.12 v 0.06 l -0.24,0.12 h -0.06 l -0.12,0.12 -0.06,0.06 -0.12,0.12 -0.06,0.06 -0.06,0.06 v 0.06 l -0.12,0.12 v 0.12 l -0.12,0.06 v 0.06 l -0.06,0.06 v 0.18 l -0.06,0.12 v 0.06 L 207,337.4 v 0.3 l -0.06,0.06 z"
       style="fill:none;stroke:#000000;stroke-width:1;stroke-linecap:round;stroke-linejoin:round;stroke-miterlimit:10;stroke-dasharray:none;stroke-opacity:1"
       id="path548" /><path
       d="m 206.94,337.88 v 0.54 l 0.06,0.06 v 0.06 l 0.06,0.06 v 0.06 l 0.06,0.06 v 0.06 l 0.06,0.06 v 0.06 l 0.06,0.06 0.06,0.06 v 0.12 l 0.18,0.18 0.06,0.06 h 0.06 v 0.06 l 0.06,0.06 h 0.06 l 0.12,0.12 h 0.12 l 0.18,0.18 h 0.06 l 0.06,0.06 h 0.18 l 0.12,0.12 h 1.14 l 0.12,-0.06 0.06,-0.06 h 0.06 l 0.06,-0.06 0.24,-0.12 0.06,-0.06 h 0.06 l 0.06,-0.12 h 0.06 l 0.12,-0.12 v -0.06 h 0.06 l 0.06,-0.06 v -0.06 l 0.12,-0.12 v -0.06 l 0.06,-0.06 0.06,-0.06 v -0.12 l 0.06,-0.06 v -0.18 l 0.06,-0.06 v -0.06 l 0.06,-0.06 v -0.18 l 0.06,-0.06 v -0.78 l -0.06,-0.12 -0.06,-0.06 v -0.12 l -0.06,-0.06 v -0.06 h -0.06 v -0.06 l -0.06,-0.06 v -0.06 l -0.06,-0.06 v -0.12 h -0.06 l -0.06,-0.06 -0.06,-0.06 -0.06,-0.06 v -0.06 h -0.06 l -0.06,-0.06 -0.06,-0.06 h -0.06 l -0.06,-0.06 h -0.06 l -0.06,-0.06 h -0.06 l -0.12,-0.12 -0.06,-0.06 h -0.24 l -0.06,-0.06 -0.12,-0.06 h -1.14 l -0.12,0.12 h -0.12 v 0.06 l -0.24,0.12 h -0.06 l -0.12,0.12 -0.06,0.06 -0.12,0.12 -0.06,0.06 -0.06,0.06 v 0.06 l -0.12,0.12 v 0.12 l -0.12,0.06 v 0.06 l -0.06,0.06 v 0.18 l -0.06,0.12 v 0.06 L 207,337.4 v 0.3 l -0.06,0.06 v 0.12"
       style="fill:#ffffff;fill-opacity:1;fill-rule:evenodd;stroke:none"
       id="path550" /><path
       d="m 206.94,337.88 v 0.54 l 0.06,0.06 v 0.06 l 0.06,0.06 v 0.06 l 0.06,0.06 v 0.06 l 0.06,0.06 v 0.06 l 0.06,0.06 0.06,0.06 v 0.12 l 0.18,0.18 0.06,0.06 h 0.06 v 0.06 l 0.06,0.06 h 0.06 l 0.12,0.12 h 0.12 l 0.18,0.18 h 0.06 l 0.06,0.06 h 0.18 l 0.12,0.12 h 1.14 l 0.12,-0.06 0.06,-0.06 h 0.06 l 0.06,-0.06 0.24,-0.12 0.06,-0.06 h 0.06 l 0.06,-0.12 h 0.06 l 0.12,-0.12 v -0.06 h 0.06 l 0.06,-0.06 v -0.06 l 0.12,-0.12 v -0.06 l 0.06,-0.06 0.06,-0.06 v -0.12 l 0.06,-0.06 v -0.18 l 0.06,-0.06 v -0.06 l 0.06,-0.06 v -0.18 l 0.06,-0.06 v -0.78 l -0.06,-0.12 -0.06,-0.06 v -0.12 l -0.06,-0.06 v -0.06 h -0.06 v -0.06 l -0.06,-0.06 v -0.06 l -0.06,-0.06 v -0.12 h -0.06 l -0.06,-0.06 -0.06,-0.06 -0.06,-0.06 v -0.06 h -0.06 l -0.06,-0.06 -0.06,-0.06 h -0.06 l -0.06,-0.06 h -0.06 l -0.06,-0.06 h -0.06 l -0.12,-0.12 -0.06,-0.06 h -0.24 l -0.06,-0.06 -0.12,-0.06 h -1.14 l -0.12,0.12 h -0.12 v 0.06 l -0.24,0.12 h -0.06 l -0.12,0.12 -0.06,0.06 -0.12,0.12 -0.06,0.06 -0.06,0.06 v 0.06 l -0.12,0.12 v 0.12 l -0.12,0.06 v 0.06 l -0.06,0.06 v 0.18 l -0.06,0.12 v 0.06 L 207,337.4 v 0.3 l -0.06,0.06 z"
       style="fill:none;stroke:#000000;stroke-width:1;stroke-linecap:round;stroke-linejoin:round;stroke-miterlimit:10;stroke-dasharray:none;stroke-opacity:1"
       id="path552" /><path
       d="m 248.7,338.18 v 0.6 l 0.12,0.12 v 0.12 l 0.12,0.12 v 0.12 l 0.06,0.06 0.06,0.06 v 0.06 l 0.06,0.06 0.12,0.12 0.06,0.06 0.12,0.12 0.24,0.12 v 0.06 h 0.12 v 0.06 l 0.12,0.06 h 0.24 l 0.12,0.12 h 0.24 l 0.12,0.06 h 0.72 l 0.12,-0.06 h 0.06 l 0.06,-0.06 0.06,-0.06 h 0.12 l 0.12,-0.12 H 252 l 0.06,-0.06 v -0.06 l 0.12,-0.06 v -0.06 l 0.12,-0.06 v -0.06 h 0.06 l 0.12,-0.12 v -0.06 l 0.06,-0.06 v -0.12 l 0.12,-0.12 v -0.06 l 0.06,-0.06 v -0.18 l 0.06,-0.06 v -0.06 l 0.06,-0.06 v -0.18 l 0.06,-0.12 v -0.72 l -0.06,-0.12 -0.06,-0.12 -0.06,-0.12 -0.06,-0.06 v -0.06 l -0.06,-0.06 v -0.06 l -0.06,-0.06 v -0.06 l -0.24,-0.24 -0.06,-0.06 -0.06,-0.06 v -0.06 h -0.12 v -0.06 h -0.12 l -0.06,-0.06 h -0.06 l -0.12,-0.12 h -0.06 l -0.06,-0.06 h -0.18 l -0.06,-0.06 h -0.3 l -0.06,-0.06 h -0.78 l -0.06,0.06 h -0.06 l -0.06,0.06 h -0.06 l -0.06,0.06 h -0.06 l -0.06,0.06 h -0.06 l -0.06,0.06 h -0.06 l -0.06,0.06 -0.12,0.06 -0.06,0.06 -0.06,0.12 h -0.06 v 0.06 l -0.12,0.12 v 0.06 l -0.06,0.06 v 0.06 l -0.06,0.06 -0.06,0.06 v 0.12 h -0.06 l -0.06,0.12 v 0.24 l -0.06,0.06 v 0.18 L 248.7,338 v 0.18"
       style="fill:#ffffff;fill-opacity:1;fill-rule:evenodd;stroke:none"
       id="path554" /><path
       d="m 248.7,338.18 v 0.6 l 0.12,0.12 v 0.12 l 0.12,0.12 v 0.12 l 0.06,0.06 0.06,0.06 v 0.06 l 0.06,0.06 0.12,0.12 0.06,0.06 0.12,0.12 0.24,0.12 v 0.06 h 0.12 v 0.06 l 0.12,0.06 h 0.24 l 0.12,0.12 h 0.24 l 0.12,0.06 h 0.72 l 0.12,-0.06 h 0.06 l 0.06,-0.06 0.06,-0.06 h 0.12 l 0.12,-0.12 H 252 l 0.06,-0.06 v -0.06 l 0.12,-0.06 v -0.06 l 0.12,-0.06 v -0.06 h 0.06 l 0.12,-0.12 v -0.06 l 0.06,-0.06 v -0.12 l 0.12,-0.12 v -0.06 l 0.06,-0.06 v -0.18 l 0.06,-0.06 v -0.06 l 0.06,-0.06 v -0.18 l 0.06,-0.12 v -0.72 l -0.06,-0.12 -0.06,-0.12 -0.06,-0.12 -0.06,-0.06 v -0.06 l -0.06,-0.06 v -0.06 l -0.06,-0.06 v -0.06 l -0.24,-0.24 -0.06,-0.06 -0.06,-0.06 v -0.06 h -0.12 v -0.06 h -0.12 l -0.06,-0.06 h -0.06 l -0.12,-0.12 h -0.06 l -0.06,-0.06 h -0.18 l -0.06,-0.06 h -0.3 l -0.06,-0.06 h -0.78 l -0.06,0.06 h -0.06 l -0.06,0.06 h -0.06 l -0.06,0.06 h -0.06 l -0.06,0.06 h -0.06 l -0.06,0.06 h -0.06 l -0.06,0.06 -0.12,0.06 -0.06,0.06 -0.06,0.12 h -0.06 v 0.06 l -0.12,0.12 v 0.06 l -0.06,0.06 v 0.06 l -0.06,0.06 -0.06,0.06 v 0.12 h -0.06 l -0.06,0.12 v 0.24 l -0.06,0.06 v 0.18 L 248.7,338 Z"
       style="fill:none;stroke:#000000;stroke-width:1;stroke-linecap:round;stroke-linejoin:round;stroke-miterlimit:10;stroke-dasharray:none;stroke-opacity:1"
       id="path556" /><path
       d="m 248.7,338.18 v 0.6 l 0.12,0.12 v 0.12 l 0.12,0.12 v 0.12 l 0.06,0.06 0.06,0.06 v 0.06 l 0.06,0.06 0.12,0.12 0.06,0.06 0.12,0.12 0.24,0.12 v 0.06 h 0.12 v 0.06 l 0.12,0.06 h 0.24 l 0.12,0.12 h 0.24 l 0.12,0.06 h 0.72 l 0.12,-0.06 h 0.06 l 0.06,-0.06 0.06,-0.06 h 0.12 l 0.12,-0.12 H 252 l 0.06,-0.06 v -0.06 l 0.12,-0.06 v -0.06 l 0.12,-0.06 v -0.06 h 0.06 l 0.12,-0.12 v -0.06 l 0.06,-0.06 v -0.12 l 0.12,-0.12 v -0.06 l 0.06,-0.06 v -0.18 l 0.06,-0.06 v -0.06 l 0.06,-0.06 v -0.18 l 0.06,-0.12 v -0.72 l -0.06,-0.12 -0.06,-0.12 -0.06,-0.12 -0.06,-0.06 v -0.06 l -0.06,-0.06 v -0.06 l -0.06,-0.06 v -0.06 l -0.24,-0.24 -0.06,-0.06 -0.06,-0.06 v -0.06 h -0.12 v -0.06 h -0.12 l -0.06,-0.06 h -0.06 l -0.12,-0.12 h -0.06 l -0.06,-0.06 h -0.18 l -0.06,-0.06 h -0.3 l -0.06,-0.06 h -0.78 l -0.06,0.06 h -0.06 l -0.06,0.06 h -0.06 l -0.06,0.06 h -0.06 l -0.06,0.06 h -0.06 l -0.06,0.06 h -0.06 l -0.06,0.06 -0.12,0.06 -0.06,0.06 -0.06,0.12 h -0.06 v 0.06 l -0.12,0.12 v 0.06 l -0.06,0.06 v 0.06 l -0.06,0.06 -0.06,0.06 v 0.12 h -0.06 l -0.06,0.12 v 0.24 l -0.06,0.06 v 0.18 L 248.7,338 v 0.18"
       style="fill:#ffffff;fill-opacity:1;fill-rule:evenodd;stroke:none"
       id="path558" /><path
       d="m 248.7,338.18 v 0.6 l 0.12,0.12 v 0.12 l 0.12,0.12 v 0.12 l 0.06,0.06 0.06,0.06 v 0.06 l 0.06,0.06 0.12,0.12 0.06,0.06 0.12,0.12 0.24,0.12 v 0.06 h 0.12 v 0.06 l 0.12,0.06 h 0.24 l 0.12,0.12 h 0.24 l 0.12,0.06 h 0.72 l 0.12,-0.06 h 0.06 l 0.06,-0.06 0.06,-0.06 h 0.12 l 0.12,-0.12 H 252 l 0.06,-0.06 v -0.06 l 0.12,-0.06 v -0.06 l 0.12,-0.06 v -0.06 h 0.06 l 0.12,-0.12 v -0.06 l 0.06,-0.06 v -0.12 l 0.12,-0.12 v -0.06 l 0.06,-0.06 v -0.18 l 0.06,-0.06 v -0.06 l 0.06,-0.06 v -0.18 l 0.06,-0.12 v -0.72 l -0.06,-0.12 -0.06,-0.12 -0.06,-0.12 -0.06,-0.06 v -0.06 l -0.06,-0.06 v -0.06 l -0.06,-0.06 v -0.06 l -0.24,-0.24 -0.06,-0.06 -0.06,-0.06 v -0.06 h -0.12 v -0.06 h -0.12 l -0.06,-0.06 h -0.06 l -0.12,-0.12 h -0.06 l -0.06,-0.06 h -0.18 l -0.06,-0.06 h -0.3 l -0.06,-0.06 h -0.78 l -0.06,0.06 h -0.06 l -0.06,0.06 h -0.06 l -0.06,0.06 h -0.06 l -0.06,0.06 h -0.06 l -0.06,0.06 h -0.06 l -0.06,0.06 -0.12,0.06 -0.06,0.06 -0.06,0.12 h -0.06 v 0.06 l -0.12,0.12 v 0.06 l -0.06,0.06 v 0.06 l -0.06,0.06 -0.06,0.06 v 0.12 h -0.06 l -0.06,0.12 v 0.24 l -0.06,0.06 v 0.18 L 248.7,338 Z"
       style="fill:none;stroke:#000000;stroke-width:1;stroke-linecap:round;stroke-linejoin:round;stroke-miterlimit:10;stroke-dasharray:none;stroke-opacity:1"
       id="path560" /><path
       d="m 300.78,335.12 h 23.4 v 6.06 h -23.4 z"
       style="fill:#ffffff;fill-opacity:1;fill-rule:nonzero;stroke:none"
       id="path562" /><path
       d="m 324.18,341.18 h -23.4 v -6.06 h 23.4 z m -23.4,0 z"
       style="fill:none;stroke:#000000;stroke-width:1;stroke-linecap:round;stroke-linejoin:miter;stroke-miterlimit:8;stroke-dasharray:none;stroke-opacity:1"
       id="path564" /><path
       d="m 290.22,338.36 v 0.6 l 0.06,0.06 v 0.12 h 0.06 l 0.06,0.12 v 0.06 l 0.06,0.06 0.06,0.12 v 0.12 h 0.06 l 0.24,0.24 v 0.06 h 0.06 v 0.06 l 0.12,0.06 v 0.06 h 0.12 l 0.12,0.06 0.12,0.12 h 0.06 l 0.06,0.06 h 0.18 l 0.06,0.06 h 0.06 l 0.06,0.06 h 0.3 l 0.06,0.06 h 0.6 l 0.06,-0.06 h 0.12 l 0.12,-0.06 0.12,-0.06 0.06,-0.06 h 0.06 l 0.06,-0.06 h 0.06 l 0.12,-0.12 h 0.06 l 0.18,-0.18 v -0.06 h 0.06 l 0.12,-0.12 v -0.06 l 0.06,-0.06 v -0.06 l 0.06,-0.06 v -0.06 l 0.18,-0.18 v -0.24 l 0.06,-0.12 0.06,-0.06 v -1.08 l -0.06,-0.12 -0.06,-0.06 v -0.12 l -0.06,-0.06 -0.06,-0.06 v -0.06 l -0.06,-0.06 v -0.06 l -0.06,-0.06 v -0.06 l -0.12,-0.12 -0.12,-0.06 v -0.06 h -0.06 l -0.06,-0.12 h -0.12 l -0.12,-0.12 h -0.06 l -0.06,-0.06 -0.12,-0.06 -0.12,-0.06 h -0.18 l -0.06,-0.06 h -0.24 l -0.12,-0.06 h -0.78 l -0.06,0.06 h -0.06 l -0.06,0.06 h -0.06 l -0.06,0.06 h -0.06 l -0.06,0.06 h -0.06 l -0.06,0.06 h -0.06 l -0.06,0.06 -0.42,0.42 v 0.12 h -0.06 l -0.12,0.24 -0.06,0.06 v 0.24 l -0.06,0.06 -0.06,0.06 v 0.3 l -0.06,0.06 v 0.18"
       style="fill:#ffffff;fill-opacity:1;fill-rule:evenodd;stroke:none"
       id="path566" /><path
       d="m 290.22,338.36 v 0.6 l 0.06,0.06 v 0.12 h 0.06 l 0.06,0.12 v 0.06 l 0.06,0.06 0.06,0.12 v 0.12 h 0.06 l 0.24,0.24 v 0.06 h 0.06 v 0.06 l 0.12,0.06 v 0.06 h 0.12 l 0.12,0.06 0.12,0.12 h 0.06 l 0.06,0.06 h 0.18 l 0.06,0.06 h 0.06 l 0.06,0.06 h 0.3 l 0.06,0.06 h 0.6 l 0.06,-0.06 h 0.12 l 0.12,-0.06 0.12,-0.06 0.06,-0.06 h 0.06 l 0.06,-0.06 h 0.06 l 0.12,-0.12 h 0.06 l 0.18,-0.18 v -0.06 h 0.06 l 0.12,-0.12 v -0.06 l 0.06,-0.06 v -0.06 l 0.06,-0.06 v -0.06 l 0.18,-0.18 v -0.24 l 0.06,-0.12 0.06,-0.06 v -1.08 l -0.06,-0.12 -0.06,-0.06 v -0.12 l -0.06,-0.06 -0.06,-0.06 v -0.06 l -0.06,-0.06 v -0.06 l -0.06,-0.06 v -0.06 l -0.12,-0.12 -0.12,-0.06 v -0.06 h -0.06 l -0.06,-0.12 h -0.12 l -0.12,-0.12 h -0.06 l -0.06,-0.06 -0.12,-0.06 -0.12,-0.06 h -0.18 l -0.06,-0.06 h -0.24 l -0.12,-0.06 h -0.78 l -0.06,0.06 h -0.06 l -0.06,0.06 h -0.06 l -0.06,0.06 h -0.06 l -0.06,0.06 h -0.06 l -0.06,0.06 h -0.06 l -0.06,0.06 -0.42,0.42 v 0.12 h -0.06 l -0.12,0.24 -0.06,0.06 v 0.24 l -0.06,0.06 -0.06,0.06 v 0.3 l -0.06,0.06 z"
       style="fill:none;stroke:#000000;stroke-width:1;stroke-linecap:round;stroke-linejoin:round;stroke-miterlimit:10;stroke-dasharray:none;stroke-opacity:1"
       id="path568" /><path
       d="m 290.22,338.36 v 0.6 l 0.06,0.06 v 0.12 h 0.06 l 0.06,0.12 v 0.06 l 0.06,0.06 0.06,0.12 v 0.12 h 0.06 l 0.24,0.24 v 0.06 h 0.06 v 0.06 l 0.12,0.06 v 0.06 h 0.12 l 0.12,0.06 0.12,0.12 h 0.06 l 0.06,0.06 h 0.18 l 0.06,0.06 h 0.06 l 0.06,0.06 h 0.3 l 0.06,0.06 h 0.6 l 0.06,-0.06 h 0.12 l 0.12,-0.06 0.12,-0.06 0.06,-0.06 h 0.06 l 0.06,-0.06 h 0.06 l 0.12,-0.12 h 0.06 l 0.18,-0.18 v -0.06 h 0.06 l 0.12,-0.12 v -0.06 l 0.06,-0.06 v -0.06 l 0.06,-0.06 v -0.06 l 0.18,-0.18 v -0.24 l 0.06,-0.12 0.06,-0.06 v -1.08 l -0.06,-0.12 -0.06,-0.06 v -0.12 l -0.06,-0.06 -0.06,-0.06 v -0.06 l -0.06,-0.06 v -0.06 l -0.06,-0.06 v -0.06 l -0.12,-0.12 -0.12,-0.06 v -0.06 h -0.06 l -0.06,-0.12 h -0.12 l -0.12,-0.12 h -0.06 l -0.06,-0.06 -0.12,-0.06 -0.12,-0.06 h -0.18 l -0.06,-0.06 h -0.24 l -0.12,-0.06 h -0.78 l -0.06,0.06 h -0.06 l -0.06,0.06 h -0.06 l -0.06,0.06 h -0.06 l -0.06,0.06 h -0.06 l -0.06,0.06 h -0.06 l -0.06,0.06 -0.42,0.42 v 0.12 h -0.06 l -0.12,0.24 -0.06,0.06 v 0.24 l -0.06,0.06 -0.06,0.06 v 0.3 l -0.06,0.06 v 0.18"
       style="fill:#ffffff;fill-opacity:1;fill-rule:evenodd;stroke:none"
       id="path570" /><path
       d="m 290.22,338.36 v 0.6 l 0.06,0.06 v 0.12 h 0.06 l 0.06,0.12 v 0.06 l 0.06,0.06 0.06,0.12 v 0.12 h 0.06 l 0.24,0.24 v 0.06 h 0.06 v 0.06 l 0.12,0.06 v 0.06 h 0.12 l 0.12,0.06 0.12,0.12 h 0.06 l 0.06,0.06 h 0.18 l 0.06,0.06 h 0.06 l 0.06,0.06 h 0.3 l 0.06,0.06 h 0.6 l 0.06,-0.06 h 0.12 l 0.12,-0.06 0.12,-0.06 0.06,-0.06 h 0.06 l 0.06,-0.06 h 0.06 l 0.12,-0.12 h 0.06 l 0.18,-0.18 v -0.06 h 0.06 l 0.12,-0.12 v -0.06 l 0.06,-0.06 v -0.06 l 0.06,-0.06 v -0.06 l 0.18,-0.18 v -0.24 l 0.06,-0.12 0.06,-0.06 v -1.08 l -0.06,-0.12 -0.06,-0.06 v -0.12 l -0.06,-0.06 -0.06,-0.06 v -0.06 l -0.06,-0.06 v -0.06 l -0.06,-0.06 v -0.06 l -0.12,-0.12 -0.12,-0.06 v -0.06 h -0.06 l -0.06,-0.12 h -0.12 l -0.12,-0.12 h -0.06 l -0.06,-0.06 -0.12,-0.06 -0.12,-0.06 h -0.18 l -0.06,-0.06 h -0.24 l -0.12,-0.06 h -0.78 l -0.06,0.06 h -0.06 l -0.06,0.06 h -0.06 l -0.06,0.06 h -0.06 l -0.06,0.06 h -0.06 l -0.06,0.06 h -0.06 l -0.06,0.06 -0.42,0.42 v 0.12 h -0.06 l -0.12,0.24 -0.06,0.06 v 0.24 l -0.06,0.06 -0.06,0.06 v 0.3 l -0.06,0.06 z"
       style="fill:none;stroke:#000000;stroke-width:1;stroke-linecap:round;stroke-linejoin:round;stroke-miterlimit:10;stroke-dasharray:none;stroke-opacity:1"
       id="path572" /><path
       d="m 342.6,335.12 h 23.34 v 6.06 H 342.6 Z"
       style="fill:#ffffff;fill-opacity:1;fill-rule:nonzero;stroke:none"
       id="path574" /><path
       d="M 365.94,341.18 H 342.6 v -6.06 h 23.34 z m -23.34,0 z"
       style="fill:none;stroke:#000000;stroke-width:1;stroke-linecap:round;stroke-linejoin:miter;stroke-miterlimit:8;stroke-dasharray:none;stroke-opacity:1"
       id="path576" /><path
       d="m 331.5,338.36 v 0.54 l 0.06,0.12 0.06,0.06 v 0.12 l 0.06,0.06 h 0.06 v 0.18 l 0.06,0.06 0.06,0.06 v 0.06 h 0.06 l 0.18,0.18 v 0.06 h 0.06 v 0.06 l 0.06,0.06 h 0.12 v 0.06 l 0.12,0.06 h 0.12 v 0.12 h 0.12 l 0.06,0.06 h 0.18 l 0.06,0.06 h 0.06 l 0.06,0.06 h 0.3 l 0.06,0.06 h 0.6 l 0.06,-0.06 h 0.12 l 0.06,-0.06 h 0.06 l 0.06,-0.06 h 0.06 l 0.06,-0.06 h 0.06 l 0.12,-0.12 h 0.12 v -0.06 l 0.12,-0.06 v -0.06 l 0.12,-0.06 v -0.06 l 0.18,-0.18 v -0.06 l 0.06,-0.06 v -0.06 l 0.06,-0.06 0.06,-0.06 v -0.06 l 0.06,-0.06 v -0.18 l 0.06,-0.06 v -0.06 l 0.06,-0.06 v -0.24 l 0.06,-0.06 v -0.78 l -0.06,-0.06 -0.06,-0.12 v -0.06 l -0.06,-0.06 v -0.06 h -0.06 v -0.12 h -0.06 v -0.12 l -0.06,-0.06 v -0.06 h -0.06 l -0.12,-0.12 -0.06,-0.12 h -0.06 l -0.06,-0.06 v -0.06 h -0.12 v -0.06 l -0.12,-0.06 h -0.06 l -0.06,-0.06 -0.06,-0.06 h -0.06 l -0.06,-0.06 h -0.18 l -0.06,-0.06 h -0.06 l -0.12,-0.06 h -0.24 l -0.12,-0.06 h -0.6 l -0.06,0.06 h -0.06 l -0.06,0.06 h -0.06 l -0.06,0.06 h -0.06 l -0.06,0.06 h -0.06 l -0.06,0.06 h -0.06 l -0.06,0.06 h -0.06 v 0.06 l -0.12,0.06 -0.18,0.18 v 0.06 l -0.12,0.12 v 0.06 l -0.06,0.06 v 0.06 l -0.12,0.12 v 0.06 l -0.06,0.06 -0.06,0.06 v 0.24 l -0.06,0.12 v 0.18 l -0.06,0.12 v 0.18"
       style="fill:#ffffff;fill-opacity:1;fill-rule:evenodd;stroke:none"
       id="path578" /><path
       d="m 331.5,338.36 v 0.54 l 0.06,0.12 0.06,0.06 v 0.12 l 0.06,0.06 h 0.06 v 0.18 l 0.06,0.06 0.06,0.06 v 0.06 h 0.06 l 0.18,0.18 v 0.06 h 0.06 v 0.06 l 0.06,0.06 h 0.12 v 0.06 l 0.12,0.06 h 0.12 v 0.12 h 0.12 l 0.06,0.06 h 0.18 l 0.06,0.06 h 0.06 l 0.06,0.06 h 0.3 l 0.06,0.06 h 0.6 l 0.06,-0.06 h 0.12 l 0.06,-0.06 h 0.06 l 0.06,-0.06 h 0.06 l 0.06,-0.06 h 0.06 l 0.12,-0.12 h 0.12 v -0.06 l 0.12,-0.06 v -0.06 l 0.12,-0.06 v -0.06 l 0.18,-0.18 v -0.06 l 0.06,-0.06 v -0.06 l 0.06,-0.06 0.06,-0.06 v -0.06 l 0.06,-0.06 v -0.18 l 0.06,-0.06 v -0.06 l 0.06,-0.06 v -0.24 l 0.06,-0.06 v -0.78 l -0.06,-0.06 -0.06,-0.12 v -0.06 l -0.06,-0.06 v -0.06 h -0.06 v -0.12 h -0.06 v -0.12 l -0.06,-0.06 v -0.06 h -0.06 l -0.12,-0.12 -0.06,-0.12 h -0.06 l -0.06,-0.06 v -0.06 h -0.12 v -0.06 l -0.12,-0.06 h -0.06 l -0.06,-0.06 -0.06,-0.06 h -0.06 l -0.06,-0.06 h -0.18 l -0.06,-0.06 h -0.06 l -0.12,-0.06 h -0.24 l -0.12,-0.06 h -0.6 l -0.06,0.06 h -0.06 l -0.06,0.06 h -0.06 l -0.06,0.06 h -0.06 l -0.06,0.06 h -0.06 l -0.06,0.06 h -0.06 l -0.06,0.06 h -0.06 v 0.06 l -0.12,0.06 -0.18,0.18 v 0.06 l -0.12,0.12 v 0.06 l -0.06,0.06 v 0.06 l -0.12,0.12 v 0.06 l -0.06,0.06 -0.06,0.06 v 0.24 l -0.06,0.12 v 0.18 l -0.06,0.12 z"
       style="fill:none;stroke:#000000;stroke-width:1;stroke-linecap:round;stroke-linejoin:round;stroke-miterlimit:10;stroke-dasharray:none;stroke-opacity:1"
       id="path580" /><path
       d="m 331.5,338.36 v 0.54 l 0.06,0.12 0.06,0.06 v 0.12 l 0.06,0.06 h 0.06 v 0.18 l 0.06,0.06 0.06,0.06 v 0.06 h 0.06 l 0.18,0.18 v 0.06 h 0.06 v 0.06 l 0.06,0.06 h 0.12 v 0.06 l 0.12,0.06 h 0.12 v 0.12 h 0.12 l 0.06,0.06 h 0.18 l 0.06,0.06 h 0.06 l 0.06,0.06 h 0.3 l 0.06,0.06 h 0.6 l 0.06,-0.06 h 0.12 l 0.06,-0.06 h 0.06 l 0.06,-0.06 h 0.06 l 0.06,-0.06 h 0.06 l 0.12,-0.12 h 0.12 v -0.06 l 0.12,-0.06 v -0.06 l 0.12,-0.06 v -0.06 l 0.18,-0.18 v -0.06 l 0.06,-0.06 v -0.06 l 0.06,-0.06 0.06,-0.06 v -0.06 l 0.06,-0.06 v -0.18 l 0.06,-0.06 v -0.06 l 0.06,-0.06 v -0.24 l 0.06,-0.06 v -0.78 l -0.06,-0.06 -0.06,-0.12 v -0.06 l -0.06,-0.06 v -0.06 h -0.06 v -0.12 h -0.06 v -0.12 l -0.06,-0.06 v -0.06 h -0.06 l -0.12,-0.12 -0.06,-0.12 h -0.06 l -0.06,-0.06 v -0.06 h -0.12 v -0.06 l -0.12,-0.06 h -0.06 l -0.06,-0.06 -0.06,-0.06 h -0.06 l -0.06,-0.06 h -0.18 l -0.06,-0.06 h -0.06 l -0.12,-0.06 h -0.24 l -0.12,-0.06 h -0.6 l -0.06,0.06 h -0.06 l -0.06,0.06 h -0.06 l -0.06,0.06 h -0.06 l -0.06,0.06 h -0.06 l -0.06,0.06 h -0.06 l -0.06,0.06 h -0.06 v 0.06 l -0.12,0.06 -0.18,0.18 v 0.06 l -0.12,0.12 v 0.06 l -0.06,0.06 v 0.06 l -0.12,0.12 v 0.06 l -0.06,0.06 -0.06,0.06 v 0.24 l -0.06,0.12 v 0.18 l -0.06,0.12 v 0.18"
       style="fill:#ffffff;fill-opacity:1;fill-rule:evenodd;stroke:none"
       id="path582" /><path
       d="m 331.5,338.36 v 0.54 l 0.06,0.12 0.06,0.06 v 0.12 l 0.06,0.06 h 0.06 v 0.18 l 0.06,0.06 0.06,0.06 v 0.06 h 0.06 l 0.18,0.18 v 0.06 h 0.06 v 0.06 l 0.06,0.06 h 0.12 v 0.06 l 0.12,0.06 h 0.12 v 0.12 h 0.12 l 0.06,0.06 h 0.18 l 0.06,0.06 h 0.06 l 0.06,0.06 h 0.3 l 0.06,0.06 h 0.6 l 0.06,-0.06 h 0.12 l 0.06,-0.06 h 0.06 l 0.06,-0.06 h 0.06 l 0.06,-0.06 h 0.06 l 0.12,-0.12 h 0.12 v -0.06 l 0.12,-0.06 v -0.06 l 0.12,-0.06 v -0.06 l 0.18,-0.18 v -0.06 l 0.06,-0.06 v -0.06 l 0.06,-0.06 0.06,-0.06 v -0.06 l 0.06,-0.06 v -0.18 l 0.06,-0.06 v -0.06 l 0.06,-0.06 v -0.24 l 0.06,-0.06 v -0.78 l -0.06,-0.06 -0.06,-0.12 v -0.06 l -0.06,-0.06 v -0.06 h -0.06 v -0.12 h -0.06 v -0.12 l -0.06,-0.06 v -0.06 h -0.06 l -0.12,-0.12 -0.06,-0.12 h -0.06 l -0.06,-0.06 v -0.06 h -0.12 v -0.06 l -0.12,-0.06 h -0.06 l -0.06,-0.06 -0.06,-0.06 h -0.06 l -0.06,-0.06 h -0.18 l -0.06,-0.06 h -0.06 l -0.12,-0.06 h -0.24 l -0.12,-0.06 h -0.6 l -0.06,0.06 h -0.06 l -0.06,0.06 h -0.06 l -0.06,0.06 h -0.06 l -0.06,0.06 h -0.06 l -0.06,0.06 h -0.06 l -0.06,0.06 h -0.06 v 0.06 l -0.12,0.06 -0.18,0.18 v 0.06 l -0.12,0.12 v 0.06 l -0.06,0.06 v 0.06 l -0.12,0.12 v 0.06 l -0.06,0.06 -0.06,0.06 v 0.24 l -0.06,0.12 v 0.18 l -0.06,0.12 z"
       style="fill:none;stroke:#000000;stroke-width:1;stroke-linecap:round;stroke-linejoin:round;stroke-miterlimit:10;stroke-dasharray:none;stroke-opacity:1"
       id="path584" /><path
       d="m 384.42,335.12 h 23.34 v 6.12 h -23.34 z"
       style="fill:#ffffff;fill-opacity:1;fill-rule:nonzero;stroke:none"
       id="path586" /><path
       d="m 407.76,341.24 h -23.34 v -6.06 h 23.34 z m -23.34,0 z"
       style="fill:none;stroke:#000000;stroke-width:1;stroke-linecap:round;stroke-linejoin:miter;stroke-miterlimit:8;stroke-dasharray:none;stroke-opacity:1"
       id="path588" /><path
       d="m 373.74,338.18 v 0.54 l 0.06,0.06 v 0.06 l 0.06,0.06 v 0.06 l 0.06,0.06 v 0.06 l 0.06,0.06 v 0.06 l 0.06,0.06 v 0.06 l 0.06,0.06 v 0.06 l 0.06,0.06 0.18,0.18 h 0.06 v 0.06 h 0.06 l 0.12,0.12 h 0.06 l 0.12,0.12 h 0.06 l 0.06,0.06 0.06,0.06 h 0.24 l 0.12,0.12 h 0.3 l 0.06,0.06 h 0.78 l 0.06,-0.06 h 0.12 l 0.12,-0.12 h 0.06 l 0.12,-0.06 v -0.06 h 0.18 l 0.06,-0.06 v -0.06 l 0.12,-0.12 0.12,-0.06 v -0.06 h 0.06 l 0.06,-0.06 v -0.06 l 0.06,-0.06 0.06,-0.06 v -0.12 l 0.12,-0.12 v -0.06 l 0.06,-0.06 v -0.18 l 0.06,-0.06 v -0.06 l 0.06,-0.06 v -0.3 L 378,338.3 v -0.6 l -0.06,-0.06 v -0.12 l -0.06,-0.12 -0.06,-0.12 -0.06,-0.06 v -0.06 l -0.06,-0.06 v -0.06 l -0.06,-0.06 v -0.06 l -0.24,-0.24 -0.06,-0.06 -0.12,-0.12 h -0.06 l -0.06,-0.06 h -0.06 l -0.06,-0.06 h -0.06 l -0.12,-0.12 h -0.06 l -0.06,-0.06 h -0.18 l -0.06,-0.06 h -0.3 l -0.12,-0.06 h -0.72 l -0.12,0.06 h -0.06 l -0.06,0.06 H 375 l -0.06,0.06 h -0.06 l -0.06,0.06 h -0.06 l -0.06,0.06 h -0.06 l -0.06,0.06 -0.06,0.06 -0.06,0.06 -0.06,0.12 h -0.06 l -0.18,0.18 v 0.06 l -0.06,0.06 v 0.06 l -0.12,0.12 v 0.12 h -0.06 v 0.24 l -0.06,0.06 v 0.06 l -0.06,0.06 v 0.3 l -0.06,0.12 v 0.06"
       style="fill:#ffffff;fill-opacity:1;fill-rule:evenodd;stroke:none"
       id="path590" /><path
       d="m 373.74,338.18 v 0.54 l 0.06,0.06 v 0.06 l 0.06,0.06 v 0.06 l 0.06,0.06 v 0.06 l 0.06,0.06 v 0.06 l 0.06,0.06 v 0.06 l 0.06,0.06 v 0.06 l 0.06,0.06 0.18,0.18 h 0.06 v 0.06 h 0.06 l 0.12,0.12 h 0.06 l 0.12,0.12 h 0.06 l 0.06,0.06 0.06,0.06 h 0.24 l 0.12,0.12 h 0.3 l 0.06,0.06 h 0.78 l 0.06,-0.06 h 0.12 l 0.12,-0.12 h 0.06 l 0.12,-0.06 v -0.06 h 0.18 l 0.06,-0.06 v -0.06 l 0.12,-0.12 0.12,-0.06 v -0.06 h 0.06 l 0.06,-0.06 v -0.06 l 0.06,-0.06 0.06,-0.06 v -0.12 l 0.12,-0.12 v -0.06 l 0.06,-0.06 v -0.18 l 0.06,-0.06 v -0.06 l 0.06,-0.06 v -0.3 L 378,338.3 v -0.6 l -0.06,-0.06 v -0.12 l -0.06,-0.12 -0.06,-0.12 -0.06,-0.06 v -0.06 l -0.06,-0.06 v -0.06 l -0.06,-0.06 v -0.06 l -0.24,-0.24 -0.06,-0.06 -0.12,-0.12 h -0.06 l -0.06,-0.06 h -0.06 l -0.06,-0.06 h -0.06 l -0.12,-0.12 h -0.06 l -0.06,-0.06 h -0.18 l -0.06,-0.06 h -0.3 l -0.12,-0.06 h -0.72 l -0.12,0.06 h -0.06 l -0.06,0.06 H 375 l -0.06,0.06 h -0.06 l -0.06,0.06 h -0.06 l -0.06,0.06 h -0.06 l -0.06,0.06 -0.06,0.06 -0.06,0.06 -0.06,0.12 h -0.06 l -0.18,0.18 v 0.06 l -0.06,0.06 v 0.06 l -0.12,0.12 v 0.12 h -0.06 v 0.24 l -0.06,0.06 v 0.06 l -0.06,0.06 v 0.3 l -0.06,0.12 z"
       style="fill:none;stroke:#000000;stroke-width:1;stroke-linecap:round;stroke-linejoin:round;stroke-miterlimit:10;stroke-dasharray:none;stroke-opacity:1"
       id="path592" /><path
       d="m 373.74,338.18 v 0.54 l 0.06,0.06 v 0.06 l 0.06,0.06 v 0.06 l 0.06,0.06 v 0.06 l 0.06,0.06 v 0.06 l 0.06,0.06 v 0.06 l 0.06,0.06 v 0.06 l 0.06,0.06 0.18,0.18 h 0.06 v 0.06 h 0.06 l 0.12,0.12 h 0.06 l 0.12,0.12 h 0.06 l 0.06,0.06 0.06,0.06 h 0.24 l 0.12,0.12 h 0.3 l 0.06,0.06 h 0.78 l 0.06,-0.06 h 0.12 l 0.12,-0.12 h 0.06 l 0.12,-0.06 v -0.06 h 0.18 l 0.06,-0.06 v -0.06 l 0.12,-0.12 0.12,-0.06 v -0.06 h 0.06 l 0.06,-0.06 v -0.06 l 0.06,-0.06 0.06,-0.06 v -0.12 l 0.12,-0.12 v -0.06 l 0.06,-0.06 v -0.18 l 0.06,-0.06 v -0.06 l 0.06,-0.06 v -0.3 L 378,338.3 v -0.6 l -0.06,-0.06 v -0.12 l -0.06,-0.12 -0.06,-0.12 -0.06,-0.06 v -0.06 l -0.06,-0.06 v -0.06 l -0.06,-0.06 v -0.06 l -0.24,-0.24 -0.06,-0.06 -0.12,-0.12 h -0.06 l -0.06,-0.06 h -0.06 l -0.06,-0.06 h -0.06 l -0.12,-0.12 h -0.06 l -0.06,-0.06 h -0.18 l -0.06,-0.06 h -0.3 l -0.12,-0.06 h -0.72 l -0.12,0.06 h -0.06 l -0.06,0.06 H 375 l -0.06,0.06 h -0.06 l -0.06,0.06 h -0.06 l -0.06,0.06 h -0.06 l -0.06,0.06 -0.06,0.06 -0.06,0.06 -0.06,0.12 h -0.06 l -0.18,0.18 v 0.06 l -0.06,0.06 v 0.06 l -0.12,0.12 v 0.12 h -0.06 v 0.24 l -0.06,0.06 v 0.06 l -0.06,0.06 v 0.3 l -0.06,0.12 v 0.06"
       style="fill:#ffffff;fill-opacity:1;fill-rule:evenodd;stroke:none"
       id="path594" /><path
       d="m 373.74,338.18 v 0.54 l 0.06,0.06 v 0.06 l 0.06,0.06 v 0.06 l 0.06,0.06 v 0.06 l 0.06,0.06 v 0.06 l 0.06,0.06 v 0.06 l 0.06,0.06 v 0.06 l 0.06,0.06 0.18,0.18 h 0.06 v 0.06 h 0.06 l 0.12,0.12 h 0.06 l 0.12,0.12 h 0.06 l 0.06,0.06 0.06,0.06 h 0.24 l 0.12,0.12 h 0.3 l 0.06,0.06 h 0.78 l 0.06,-0.06 h 0.12 l 0.12,-0.12 h 0.06 l 0.12,-0.06 v -0.06 h 0.18 l 0.06,-0.06 v -0.06 l 0.12,-0.12 0.12,-0.06 v -0.06 h 0.06 l 0.06,-0.06 v -0.06 l 0.06,-0.06 0.06,-0.06 v -0.12 l 0.12,-0.12 v -0.06 l 0.06,-0.06 v -0.18 l 0.06,-0.06 v -0.06 l 0.06,-0.06 v -0.3 L 378,338.3 v -0.6 l -0.06,-0.06 v -0.12 l -0.06,-0.12 -0.06,-0.12 -0.06,-0.06 v -0.06 l -0.06,-0.06 v -0.06 l -0.06,-0.06 v -0.06 l -0.24,-0.24 -0.06,-0.06 -0.12,-0.12 h -0.06 l -0.06,-0.06 h -0.06 l -0.06,-0.06 h -0.06 l -0.12,-0.12 h -0.06 l -0.06,-0.06 h -0.18 l -0.06,-0.06 h -0.3 l -0.12,-0.06 h -0.72 l -0.12,0.06 h -0.06 l -0.06,0.06 H 375 l -0.06,0.06 h -0.06 l -0.06,0.06 h -0.06 l -0.06,0.06 h -0.06 l -0.06,0.06 -0.06,0.06 -0.06,0.06 -0.06,0.12 h -0.06 l -0.18,0.18 v 0.06 l -0.06,0.06 v 0.06 l -0.12,0.12 v 0.12 h -0.06 v 0.24 l -0.06,0.06 v 0.06 l -0.06,0.06 v 0.3 l -0.06,0.12 z"
       style="fill:none;stroke:#000000;stroke-width:1;stroke-linecap:round;stroke-linejoin:round;stroke-miterlimit:10;stroke-dasharray:none;stroke-opacity:1"
       id="path596" /><path
       d="m 425.88,335.12 h 23.4 v 6.06 h -23.4 z"
       style="fill:#ffffff;fill-opacity:1;fill-rule:nonzero;stroke:none"
       id="path598" /><path
       d="m 449.22,341.18 h -23.34 v -6.06 h 23.34 z m -23.34,0 z"
       style="fill:none;stroke:#000000;stroke-width:1;stroke-linecap:round;stroke-linejoin:miter;stroke-miterlimit:8;stroke-dasharray:none;stroke-opacity:1"
       id="path600" /><path
       d="m 415.32,338.36 v 0.6 l 0.06,0.06 v 0.12 h 0.06 l 0.06,0.12 v 0.06 l 0.06,0.06 0.06,0.12 v 0.12 h 0.06 l 0.24,0.24 v 0.06 h 0.06 v 0.06 l 0.12,0.12 h 0.12 l 0.06,0.06 0.12,0.06 0.06,0.06 h 0.06 l 0.06,0.06 h 0.18 l 0.06,0.06 h 0.06 l 0.06,0.06 h 0.3 l 0.06,0.06 h 0.6 l 0.06,-0.06 h 0.12 l 0.12,-0.06 0.12,-0.06 0.06,-0.06 h 0.06 l 0.06,-0.06 h 0.06 l 0.12,-0.12 h 0.06 l 0.18,-0.18 v -0.06 h 0.06 l 0.12,-0.12 v -0.06 l 0.06,-0.06 v -0.06 l 0.06,-0.06 v -0.06 l 0.06,-0.06 0.06,-0.06 0.06,-0.06 v -0.24 l 0.06,-0.12 0.06,-0.06 v -1.08 l -0.06,-0.12 -0.06,-0.06 v -0.12 l -0.06,-0.06 -0.06,-0.06 v -0.06 l -0.06,-0.06 v -0.06 l -0.06,-0.06 v -0.06 l -0.12,-0.12 -0.12,-0.06 v -0.06 h -0.06 l -0.06,-0.12 h -0.12 l -0.12,-0.12 h -0.06 l -0.06,-0.06 -0.12,-0.06 -0.12,-0.06 h -0.18 l -0.06,-0.06 h -0.24 l -0.12,-0.06 h -0.78 l -0.06,0.06 h -0.06 l -0.06,0.06 h -0.06 l -0.06,0.06 h -0.06 l -0.06,0.06 h -0.06 l -0.06,0.06 h -0.06 l -0.12,0.12 h -0.06 l -0.06,0.12 -0.24,0.24 v 0.12 h -0.06 l -0.12,0.24 -0.06,0.06 v 0.24 l -0.06,0.06 -0.06,0.06 v 0.3 l -0.06,0.06 v 0.18"
       style="fill:#ffffff;fill-opacity:1;fill-rule:evenodd;stroke:none"
       id="path602" /><path
       d="m 415.32,338.36 v 0.6 l 0.06,0.06 v 0.12 h 0.06 l 0.06,0.12 v 0.06 l 0.06,0.06 0.06,0.12 v 0.12 h 0.06 l 0.24,0.24 v 0.06 h 0.06 v 0.06 l 0.12,0.12 h 0.12 l 0.06,0.06 0.12,0.06 0.06,0.06 h 0.06 l 0.06,0.06 h 0.18 l 0.06,0.06 h 0.06 l 0.06,0.06 h 0.3 l 0.06,0.06 h 0.6 l 0.06,-0.06 h 0.12 l 0.12,-0.06 0.12,-0.06 0.06,-0.06 h 0.06 l 0.06,-0.06 h 0.06 l 0.12,-0.12 h 0.06 l 0.18,-0.18 v -0.06 h 0.06 l 0.12,-0.12 v -0.06 l 0.06,-0.06 v -0.06 l 0.06,-0.06 v -0.06 l 0.06,-0.06 0.06,-0.06 0.06,-0.06 v -0.24 l 0.06,-0.12 0.06,-0.06 v -1.08 l -0.06,-0.12 -0.06,-0.06 v -0.12 l -0.06,-0.06 -0.06,-0.06 v -0.06 l -0.06,-0.06 v -0.06 l -0.06,-0.06 v -0.06 l -0.12,-0.12 -0.12,-0.06 v -0.06 h -0.06 l -0.06,-0.12 h -0.12 l -0.12,-0.12 h -0.06 l -0.06,-0.06 -0.12,-0.06 -0.12,-0.06 h -0.18 l -0.06,-0.06 h -0.24 l -0.12,-0.06 h -0.78 l -0.06,0.06 h -0.06 l -0.06,0.06 h -0.06 l -0.06,0.06 h -0.06 l -0.06,0.06 h -0.06 l -0.06,0.06 h -0.06 l -0.12,0.12 h -0.06 l -0.06,0.12 -0.24,0.24 v 0.12 h -0.06 l -0.12,0.24 -0.06,0.06 v 0.24 l -0.06,0.06 -0.06,0.06 v 0.3 l -0.06,0.06 z"
       style="fill:none;stroke:#000000;stroke-width:1;stroke-linecap:round;stroke-linejoin:round;stroke-miterlimit:10;stroke-dasharray:none;stroke-opacity:1"
       id="path604" /><path
       d="m 415.32,338.36 v 0.6 l 0.06,0.06 v 0.12 h 0.06 l 0.06,0.12 v 0.06 l 0.06,0.06 0.06,0.12 v 0.12 h 0.06 l 0.24,0.24 v 0.06 h 0.06 v 0.06 l 0.12,0.12 h 0.12 l 0.06,0.06 0.12,0.06 0.06,0.06 h 0.06 l 0.06,0.06 h 0.18 l 0.06,0.06 h 0.06 l 0.06,0.06 h 0.3 l 0.06,0.06 h 0.6 l 0.06,-0.06 h 0.12 l 0.12,-0.06 0.12,-0.06 0.06,-0.06 h 0.06 l 0.06,-0.06 h 0.06 l 0.12,-0.12 h 0.06 l 0.18,-0.18 v -0.06 h 0.06 l 0.12,-0.12 v -0.06 l 0.06,-0.06 v -0.06 l 0.06,-0.06 v -0.06 l 0.06,-0.06 0.06,-0.06 0.06,-0.06 v -0.24 l 0.06,-0.12 0.06,-0.06 v -1.08 l -0.06,-0.12 -0.06,-0.06 v -0.12 l -0.06,-0.06 -0.06,-0.06 v -0.06 l -0.06,-0.06 v -0.06 l -0.06,-0.06 v -0.06 l -0.12,-0.12 -0.12,-0.06 v -0.06 h -0.06 l -0.06,-0.12 h -0.12 l -0.12,-0.12 h -0.06 l -0.06,-0.06 -0.12,-0.06 -0.12,-0.06 h -0.18 l -0.06,-0.06 h -0.24 l -0.12,-0.06 h -0.78 l -0.06,0.06 h -0.06 l -0.06,0.06 h -0.06 l -0.06,0.06 h -0.06 l -0.06,0.06 h -0.06 l -0.06,0.06 h -0.06 l -0.12,0.12 h -0.06 l -0.06,0.12 -0.24,0.24 v 0.12 h -0.06 l -0.12,0.24 -0.06,0.06 v 0.24 l -0.06,0.06 -0.06,0.06 v 0.3 l -0.06,0.06 v 0.18"
       style="fill:#ffffff;fill-opacity:1;fill-rule:evenodd;stroke:none"
       id="path606" /><path
       d="m 415.32,338.36 v 0.6 l 0.06,0.06 v 0.12 h 0.06 l 0.06,0.12 v 0.06 l 0.06,0.06 0.06,0.12 v 0.12 h 0.06 l 0.24,0.24 v 0.06 h 0.06 v 0.06 l 0.12,0.12 h 0.12 l 0.06,0.06 0.12,0.06 0.06,0.06 h 0.06 l 0.06,0.06 h 0.18 l 0.06,0.06 h 0.06 l 0.06,0.06 h 0.3 l 0.06,0.06 h 0.6 l 0.06,-0.06 h 0.12 l 0.12,-0.06 0.12,-0.06 0.06,-0.06 h 0.06 l 0.06,-0.06 h 0.06 l 0.12,-0.12 h 0.06 l 0.18,-0.18 v -0.06 h 0.06 l 0.12,-0.12 v -0.06 l 0.06,-0.06 v -0.06 l 0.06,-0.06 v -0.06 l 0.06,-0.06 0.06,-0.06 0.06,-0.06 v -0.24 l 0.06,-0.12 0.06,-0.06 v -1.08 l -0.06,-0.12 -0.06,-0.06 v -0.12 l -0.06,-0.06 -0.06,-0.06 v -0.06 l -0.06,-0.06 v -0.06 l -0.06,-0.06 v -0.06 l -0.12,-0.12 -0.12,-0.06 v -0.06 h -0.06 l -0.06,-0.12 h -0.12 l -0.12,-0.12 h -0.06 l -0.06,-0.06 -0.12,-0.06 -0.12,-0.06 h -0.18 l -0.06,-0.06 h -0.24 l -0.12,-0.06 h -0.78 l -0.06,0.06 h -0.06 l -0.06,0.06 h -0.06 l -0.06,0.06 h -0.06 l -0.06,0.06 h -0.06 l -0.06,0.06 h -0.06 l -0.12,0.12 h -0.06 l -0.06,0.12 -0.24,0.24 v 0.12 h -0.06 l -0.12,0.24 -0.06,0.06 v 0.24 l -0.06,0.06 -0.06,0.06 v 0.3 l -0.06,0.06 z"
       style="fill:none;stroke:#000000;stroke-width:1;stroke-linecap:round;stroke-linejoin:round;stroke-miterlimit:10;stroke-dasharray:none;stroke-opacity:1"
       id="path608" /><path
       d="m 467.64,335.12 h 23.4 v 6.06 h -23.4 z"
       style="fill:#ffffff;fill-opacity:1;fill-rule:nonzero;stroke:none"
       id="path610" /><path
       d="m 491.04,341.18 h -23.4 v -6.06 h 23.4 z m -23.4,0 z"
       style="fill:none;stroke:#000000;stroke-width:1;stroke-linecap:round;stroke-linejoin:miter;stroke-miterlimit:8;stroke-dasharray:none;stroke-opacity:1"
       id="path612" /><path
       d="m 456.54,338.36 v 0.48 l 0.06,0.06 v 0.12 l 0.06,0.06 v 0.06 l 0.06,0.06 v 0.06 h 0.06 v 0.12 l 0.06,0.06 v 0.06 l 0.06,0.06 v 0.06 h 0.06 l 0.24,0.24 v 0.06 l 0.12,0.06 h 0.06 l 0.12,0.12 h 0.12 l 0.06,0.12 h 0.06 l 0.06,0.06 h 0.18 l 0.06,0.06 h 0.06 l 0.06,0.06 h 0.3 l 0.06,0.06 h 0.6 l 0.12,-0.06 h 0.06 l 0.12,-0.06 h 0.06 l 0.06,-0.06 h 0.06 v -0.06 h 0.12 v -0.06 l 0.12,-0.06 h 0.12 v -0.06 l 0.24,-0.24 0.06,-0.06 0.06,-0.06 v -0.06 l 0.12,-0.12 v -0.06 l 0.12,-0.12 v -0.06 l 0.06,-0.06 v -0.18 l 0.06,-0.06 v -0.06 l 0.06,-0.06 v -0.3 l 0.06,-0.06 v -0.6 l -0.06,-0.12 v -0.06 l -0.06,-0.12 v -0.06 l -0.06,-0.06 v -0.06 h -0.06 v -0.12 h -0.06 v -0.12 l -0.06,-0.06 v -0.06 h -0.06 l -0.12,-0.12 -0.06,-0.12 h -0.06 l -0.12,-0.12 h -0.06 l -0.06,-0.06 -0.06,-0.06 h -0.06 l -0.06,-0.06 -0.06,-0.06 h -0.06 l -0.06,-0.06 h -0.18 l -0.06,-0.06 h -0.06 l -0.12,-0.06 h -0.3 l -0.06,-0.06 h -0.6 l -0.06,0.06 h -0.12 l -0.06,0.06 h -0.06 l -0.06,0.06 h -0.06 l -0.06,0.06 h -0.06 l -0.06,0.06 h -0.06 l -0.06,0.06 h -0.06 v 0.06 l -0.06,0.06 -0.12,0.06 v 0.06 h -0.06 l -0.06,0.06 v 0.06 l -0.12,0.12 v 0.06 l -0.06,0.06 v 0.06 l -0.06,0.06 -0.06,0.06 v 0.06 l -0.06,0.06 v 0.18 l -0.06,0.06 v 0.06 l -0.06,0.12 v 0.3 l -0.06,0.06 v 0.12"
       style="fill:#ffffff;fill-opacity:1;fill-rule:evenodd;stroke:none"
       id="path614" /><path
       d="m 456.54,338.36 v 0.48 l 0.06,0.06 v 0.12 l 0.06,0.06 v 0.06 l 0.06,0.06 v 0.06 h 0.06 v 0.12 l 0.06,0.06 v 0.06 l 0.06,0.06 v 0.06 h 0.06 l 0.24,0.24 v 0.06 l 0.12,0.06 h 0.06 l 0.12,0.12 h 0.12 l 0.06,0.12 h 0.06 l 0.06,0.06 h 0.18 l 0.06,0.06 h 0.06 l 0.06,0.06 h 0.3 l 0.06,0.06 h 0.6 l 0.12,-0.06 h 0.06 l 0.12,-0.06 h 0.06 l 0.06,-0.06 h 0.06 v -0.06 h 0.12 v -0.06 l 0.12,-0.06 h 0.12 v -0.06 l 0.24,-0.24 0.06,-0.06 0.06,-0.06 v -0.06 l 0.12,-0.12 v -0.06 l 0.12,-0.12 v -0.06 l 0.06,-0.06 v -0.18 l 0.06,-0.06 v -0.06 l 0.06,-0.06 v -0.3 l 0.06,-0.06 v -0.6 l -0.06,-0.12 v -0.06 l -0.06,-0.12 v -0.06 l -0.06,-0.06 v -0.06 h -0.06 v -0.12 h -0.06 v -0.12 l -0.06,-0.06 v -0.06 h -0.06 l -0.12,-0.12 -0.06,-0.12 h -0.06 l -0.12,-0.12 h -0.06 l -0.06,-0.06 -0.06,-0.06 h -0.06 l -0.06,-0.06 -0.06,-0.06 h -0.06 l -0.06,-0.06 h -0.18 l -0.06,-0.06 h -0.06 l -0.12,-0.06 h -0.3 l -0.06,-0.06 h -0.6 l -0.06,0.06 h -0.12 l -0.06,0.06 h -0.06 l -0.06,0.06 h -0.06 l -0.06,0.06 h -0.06 l -0.06,0.06 h -0.06 l -0.06,0.06 h -0.06 v 0.06 l -0.06,0.06 -0.12,0.06 v 0.06 h -0.06 l -0.06,0.06 v 0.06 l -0.12,0.12 v 0.06 l -0.06,0.06 v 0.06 l -0.06,0.06 -0.06,0.06 v 0.06 l -0.06,0.06 v 0.18 l -0.06,0.06 v 0.06 l -0.06,0.12 v 0.3 l -0.06,0.06 z"
       style="fill:none;stroke:#000000;stroke-width:1;stroke-linecap:round;stroke-linejoin:round;stroke-miterlimit:10;stroke-dasharray:none;stroke-opacity:1"
       id="path616" /><path
       d="m 456.54,338.36 v 0.48 l 0.06,0.06 v 0.12 l 0.06,0.06 v 0.06 l 0.06,0.06 v 0.06 h 0.06 v 0.12 l 0.06,0.06 v 0.06 l 0.06,0.06 v 0.06 h 0.06 l 0.24,0.24 v 0.06 l 0.12,0.06 h 0.06 l 0.12,0.12 h 0.12 l 0.06,0.12 h 0.06 l 0.06,0.06 h 0.18 l 0.06,0.06 h 0.06 l 0.06,0.06 h 0.3 l 0.06,0.06 h 0.6 l 0.12,-0.06 h 0.06 l 0.12,-0.06 h 0.06 l 0.06,-0.06 h 0.06 v -0.06 h 0.12 v -0.06 l 0.12,-0.06 h 0.12 v -0.06 l 0.24,-0.24 0.06,-0.06 0.06,-0.06 v -0.06 l 0.12,-0.12 v -0.06 l 0.12,-0.12 v -0.06 l 0.06,-0.06 v -0.18 l 0.06,-0.06 v -0.06 l 0.06,-0.06 v -0.3 l 0.06,-0.06 v -0.6 l -0.06,-0.12 v -0.06 l -0.06,-0.12 v -0.06 l -0.06,-0.06 v -0.06 h -0.06 v -0.12 h -0.06 v -0.12 l -0.06,-0.06 v -0.06 h -0.06 l -0.12,-0.12 -0.06,-0.12 h -0.06 l -0.12,-0.12 h -0.06 l -0.06,-0.06 -0.06,-0.06 h -0.06 l -0.06,-0.06 -0.06,-0.06 h -0.06 l -0.06,-0.06 h -0.18 l -0.06,-0.06 h -0.06 l -0.12,-0.06 h -0.3 l -0.06,-0.06 h -0.6 l -0.06,0.06 h -0.12 l -0.06,0.06 h -0.06 l -0.06,0.06 h -0.06 l -0.06,0.06 h -0.06 l -0.06,0.06 h -0.06 l -0.06,0.06 h -0.06 v 0.06 l -0.06,0.06 -0.12,0.06 v 0.06 h -0.06 l -0.06,0.06 v 0.06 l -0.12,0.12 v 0.06 l -0.06,0.06 v 0.06 l -0.06,0.06 -0.06,0.06 v 0.06 l -0.06,0.06 v 0.18 l -0.06,0.06 v 0.06 l -0.06,0.12 v 0.3 l -0.06,0.06 v 0.12"
       style="fill:#ffffff;fill-opacity:1;fill-rule:evenodd;stroke:none"
       id="path618" /><path
       d="m 456.54,338.36 v 0.48 l 0.06,0.06 v 0.12 l 0.06,0.06 v 0.06 l 0.06,0.06 v 0.06 h 0.06 v 0.12 l 0.06,0.06 v 0.06 l 0.06,0.06 v 0.06 h 0.06 l 0.24,0.24 v 0.06 l 0.12,0.06 h 0.06 l 0.12,0.12 h 0.12 l 0.06,0.12 h 0.06 l 0.06,0.06 h 0.18 l 0.06,0.06 h 0.06 l 0.06,0.06 h 0.3 l 0.06,0.06 h 0.6 l 0.12,-0.06 h 0.06 l 0.12,-0.06 h 0.06 l 0.06,-0.06 h 0.06 v -0.06 h 0.12 v -0.06 l 0.12,-0.06 h 0.12 v -0.06 l 0.24,-0.24 0.06,-0.06 0.06,-0.06 v -0.06 l 0.12,-0.12 v -0.06 l 0.12,-0.12 v -0.06 l 0.06,-0.06 v -0.18 l 0.06,-0.06 v -0.06 l 0.06,-0.06 v -0.3 l 0.06,-0.06 v -0.6 l -0.06,-0.12 v -0.06 l -0.06,-0.12 v -0.06 l -0.06,-0.06 v -0.06 h -0.06 v -0.12 h -0.06 v -0.12 l -0.06,-0.06 v -0.06 h -0.06 l -0.12,-0.12 -0.06,-0.12 h -0.06 l -0.12,-0.12 h -0.06 l -0.06,-0.06 -0.06,-0.06 h -0.06 l -0.06,-0.06 -0.06,-0.06 h -0.06 l -0.06,-0.06 h -0.18 l -0.06,-0.06 h -0.06 l -0.12,-0.06 h -0.3 l -0.06,-0.06 h -0.6 l -0.06,0.06 h -0.12 l -0.06,0.06 h -0.06 l -0.06,0.06 h -0.06 l -0.06,0.06 h -0.06 l -0.06,0.06 h -0.06 l -0.06,0.06 h -0.06 v 0.06 l -0.06,0.06 -0.12,0.06 v 0.06 h -0.06 l -0.06,0.06 v 0.06 l -0.12,0.12 v 0.06 l -0.06,0.06 v 0.06 l -0.06,0.06 -0.06,0.06 v 0.06 l -0.06,0.06 v 0.18 l -0.06,0.06 v 0.06 l -0.06,0.12 v 0.3 l -0.06,0.06 z"
       style="fill:none;stroke:#000000;stroke-width:1;stroke-linecap:round;stroke-linejoin:round;stroke-miterlimit:10;stroke-dasharray:none;stroke-opacity:1"
       id="path620" /><path
       d="M 87.66,370.46 281.52,370.4 M 498,370.7 309.12,370.64"
       style="fill:none;stroke:#000000;stroke-width:1;stroke-linecap:butt;stroke-linejoin:round;stroke-miterlimit:10;stroke-dasharray:none;stroke-opacity:1"
       id="path622" /><path
       d="M 308.4,370.52 V 371 l -0.06,0.12 -0.06,0.06 v 0.12 h -0.06 v 0.06 l -0.06,0.06 v 0.06 l -0.06,0.06 v 0.06 l -0.06,0.06 v 0.06 l -0.12,0.06 v 0.06 l -0.12,0.06 v 0.06 h -0.06 l -0.12,0.12 h -0.06 l -0.06,0.06 h -0.06 l -0.12,0.12 h -0.06 l -0.12,0.12 h -0.24 l -0.06,0.06 h -0.18 l -0.06,0.06 h -0.78 l -0.12,-0.12 h -0.18 v -0.06 l -0.06,-0.06 h -0.06 l -0.06,-0.06 h -0.12 v -0.06 h -0.06 l -0.36,-0.36 v -0.06 l -0.06,-0.06 v -0.06 h -0.06 l -0.06,-0.12 -0.06,-0.12 -0.06,-0.06 v -0.24 l -0.06,-0.06 -0.06,-0.06 v -0.24 l -0.06,-0.12 v -0.6 l 0.06,-0.06 v -0.06 l 0.12,-0.12 v -0.12 l 0.12,-0.12 v -0.12 l 0.36,-0.36 v -0.06 l 0.36,-0.18 h 0.06 l 0.06,-0.06 0.06,-0.06 h 0.06 l 0.06,-0.06 h 0.18 l 0.06,-0.06 h 0.24 l 0.06,-0.06 h 0.72 l 0.06,0.06 h 0.06 l 0.06,0.06 h 0.12 v 0.06 h 0.12 v 0.06 h 0.12 l 0.06,0.06 h 0.06 v 0.06 l 0.06,0.06 0.06,0.06 0.12,0.06 v 0.06 h 0.06 l 0.06,0.12 v 0.06 l 0.12,0.12 v 0.06 l 0.06,0.06 0.06,0.06 v 0.06 l 0.06,0.06 v 0.18 l 0.06,0.06 v 0.06 l 0.06,0.06 v 0.24 h 0.06 z m 0,0 V 371 l -0.06,0.12 -0.06,0.06 v 0.12 h -0.06 v 0.06 l -0.06,0.06 v 0.06 l -0.06,0.06 v 0.06 l -0.06,0.06 v 0.06 l -0.12,0.06 v 0.06 l -0.12,0.06 v 0.06 h -0.06 l -0.12,0.12 h -0.06 l -0.06,0.06 h -0.06 l -0.12,0.12 h -0.06 l -0.12,0.12 h -0.24 l -0.06,0.06 h -0.18 l -0.06,0.06 h -0.78 l -0.12,-0.12 h -0.18 v -0.06 l -0.06,-0.06 h -0.06 l -0.06,-0.06 h -0.12 v -0.06 h -0.06 l -0.36,-0.36 v -0.06 l -0.06,-0.06 v -0.06 h -0.06 l -0.06,-0.12 -0.06,-0.12 -0.06,-0.06 v -0.24 l -0.06,-0.06 -0.06,-0.06 v -0.24 l -0.06,-0.12 v -0.6 l 0.06,-0.06 v -0.06 l 0.12,-0.12 v -0.12 l 0.12,-0.12 v -0.12 l 0.36,-0.36 v -0.06 l 0.36,-0.18 h 0.06 l 0.06,-0.06 0.06,-0.06 h 0.06 l 0.06,-0.06 h 0.18 l 0.06,-0.06 h 0.24 l 0.06,-0.06 h 0.72 l 0.06,0.06 h 0.06 l 0.06,0.06 h 0.12 v 0.06 h 0.12 v 0.06 h 0.12 l 0.06,0.06 h 0.06 v 0.06 l 0.06,0.06 0.06,0.06 0.12,0.06 v 0.06 h 0.06 l 0.06,0.12 v 0.06 l 0.12,0.12 v 0.06 l 0.06,0.06 0.06,0.06 v 0.06 l 0.06,0.06 v 0.18 l 0.06,0.06 v 0.06 l 0.06,0.06 v 0.24 h 0.06 z"
       style="fill:none;stroke:#000000;stroke-width:1;stroke-linecap:round;stroke-linejoin:round;stroke-miterlimit:10;stroke-dasharray:none;stroke-opacity:1"
       id="path624" /><text
       transform="matrix(1,0,0,-1,308.88,360.1403)"
       style="font-variant:normal;font-weight:normal;font-stretch:normal;font-size:10.02px;font-family:Arial;-inkscape-font-specification:ArialMT;writing-mode:lr-tb;fill:#000000;fill-opacity:1;fill-rule:nonzero;stroke:none"
       id="text628"><tspan
         x="0"
         y="0"
         id="tspan626">+</tspan></text><text
       transform="matrix(1,0,0,-1,275.34,360.0203)"
       style="font-variant:normal;font-weight:normal;font-stretch:normal;font-size:12px;font-family:Arial;-inkscape-font-specification:ArialMT;writing-mode:lr-tb;fill:#000000;fill-opacity:1;fill-rule:nonzero;stroke:none"
       id="text632"><tspan
         x="0"
         y="0"
         id="tspan630">-</tspan></text><text
       transform="matrix(1,0,0,-1,271.74,392.5403)"
       style="font-variant:normal;font-weight:normal;font-stretch:normal;font-size:10.02px;font-family:Arial;-inkscape-font-specification:ArialMT;writing-mode:lr-tb;fill:#000000;fill-opacity:1;fill-rule:nonzero;stroke:none"
       id="text636"><tspan
         x="0"
         y="0"
         id="tspan634">U</tspan></text><text
       transform="matrix(1,0,0,-1,279,391.0403)"
       style="font-variant:normal;font-weight:normal;font-stretch:normal;font-size:6.48px;font-family:Arial;-inkscape-font-specification:ArialMT;writing-mode:lr-tb;fill:#000000;fill-opacity:1;fill-rule:nonzero;stroke:none"
       id="text640"><tspan
         x="0"
         y="0"
         id="tspan638">1</tspan></text><text
       transform="matrix(1,0,0,-1,285.36151,392.5403)"
       style="font-variant:normal;font-weight:normal;font-stretch:normal;font-size:10.02px;font-family:Arial;-inkscape-font-specification:ArialMT;writing-mode:lr-tb;fill:#000000;fill-opacity:1;fill-rule:nonzero;stroke:none"
       id="text644"><tspan
         x="0 5.8606982 8.6222095 14.202348 19.782486 22.543999"
         y="0"
         sodipodi:role="line"
         id="tspan642">= 10 V</tspan></text><text
       transform="matrix(1,0,0,-1,103.49951,346.64068)"
       style="font-variant:normal;font-weight:normal;font-stretch:normal;font-size:10.02px;font-family:Arial;-inkscape-font-specification:ArialMT;writing-mode:lr-tb;fill:#000000;fill-opacity:1;fill-rule:nonzero;stroke:none"
       id="text648"><tspan
         x="0"
         y="0"
         id="tspan646">R</tspan></text><text
       transform="matrix(1,0,0,-1,186.9601,347.0004)"
       style="font-variant:normal;font-weight:normal;font-stretch:normal;font-size:10.02px;font-family:Arial;-inkscape-font-specification:ArialMT;writing-mode:lr-tb;fill:#000000;fill-opacity:1;fill-rule:nonzero;stroke:none"
       id="text652"><tspan
         x="0"
         y="0"
         id="tspan650">R</tspan></text><text
       transform="matrix(1,0,0,-1,143.821,346.52044)"
       style="font-variant:normal;font-weight:normal;font-stretch:normal;font-size:10.02px;font-family:Arial;-inkscape-font-specification:ArialMT;writing-mode:lr-tb;fill:#000000;fill-opacity:1;fill-rule:nonzero;stroke:none"
       id="text656"><tspan
         x="0"
         y="0"
         id="tspan654">R</tspan></text><text
       transform="matrix(1,0,0,-1,226.26155,346.94028)"
       style="font-variant:normal;font-weight:normal;font-stretch:normal;font-size:10.02px;font-family:Arial;-inkscape-font-specification:ArialMT;writing-mode:lr-tb;fill:#000000;fill-opacity:1;fill-rule:nonzero;stroke:none"
       id="text660"><tspan
         x="0"
         y="0"
         id="tspan658">R</tspan></text><text
       transform="matrix(1,0,0,-1,268.44174,346.6998)"
       style="font-variant:normal;font-weight:normal;font-stretch:normal;font-size:10.02px;font-family:Arial;-inkscape-font-specification:ArialMT;writing-mode:lr-tb;fill:#000000;fill-opacity:1;fill-rule:nonzero;stroke:none"
       id="text664"><tspan
         x="0"
         y="0"
         id="tspan662">R</tspan></text><text
       transform="matrix(1,0,0,-1,309.6019,346.34008)"
       style="font-variant:normal;font-weight:normal;font-stretch:normal;font-size:10.02px;font-family:Arial;-inkscape-font-specification:ArialMT;writing-mode:lr-tb;fill:#000000;fill-opacity:1;fill-rule:nonzero;stroke:none"
       id="text668"><tspan
         x="0"
         y="0"
         id="tspan666">R</tspan></text><text
       transform="matrix(1,0,0,-1,351.72197,346.34008)"
       style="font-variant:normal;font-weight:normal;font-stretch:normal;font-size:10.02px;font-family:Arial;-inkscape-font-specification:ArialMT;writing-mode:lr-tb;fill:#000000;fill-opacity:1;fill-rule:nonzero;stroke:none"
       id="text672"><tspan
         x="0"
         y="0"
         id="tspan670">R</tspan></text><text
       transform="matrix(1,0,0,-1,393.54244,346.34008)"
       style="font-variant:normal;font-weight:normal;font-stretch:normal;font-size:10.02px;font-family:Arial;-inkscape-font-specification:ArialMT;writing-mode:lr-tb;fill:#000000;fill-opacity:1;fill-rule:nonzero;stroke:none"
       id="text676"><tspan
         x="0"
         y="0"
         id="tspan674">R</tspan></text><text
       transform="matrix(1,0,0,-1,432.42305,345.67977)"
       style="font-variant:normal;font-weight:normal;font-stretch:normal;font-size:10.02px;font-family:Arial;-inkscape-font-specification:ArialMT;writing-mode:lr-tb;fill:#000000;fill-opacity:1;fill-rule:nonzero;stroke:none"
       id="text680"><tspan
         x="0"
         y="0"
         id="tspan678">R</tspan></text><text
       transform="matrix(1,0,0,-1,473.82268,346.51944)"
       style="font-variant:normal;font-weight:normal;font-stretch:normal;font-size:10.02px;font-family:Arial;-inkscape-font-specification:ArialMT;writing-mode:lr-tb;fill:#000000;fill-opacity:1;fill-rule:nonzero;stroke:none"
       id="text684"><tspan
         x="0"
         y="0"
         id="tspan682">R</tspan></text><path
       d="m 87.12,290.48 c -1.02,0 -1.86,-0.84 -1.86,-1.86 0,-1.02 0.84,-1.86 1.86,-1.86 1.02,0 1.86,0.84 1.86,1.86 0,1.02 -0.84,1.86 -1.86,1.86"
       style="fill:#000000;fill-opacity:1;fill-rule:evenodd;stroke:none"
       id="path686" /><path
       d="m 87.12,290.48 c -1.02,0 -1.86,-0.84 -1.86,-1.86 0,-1.02 0.84,-1.86 1.86,-1.86 1.02,0 1.86,0.84 1.86,1.86 0,1.02 -0.84,1.86 -1.86,1.86 z"
       style="fill:none;stroke:#000000;stroke-width:1;stroke-linecap:round;stroke-linejoin:round;stroke-miterlimit:10;stroke-dasharray:none;stroke-opacity:1"
       id="path688" /><text
       transform="matrix(1,0,0,-1,123.18,284.4803)"
       style="font-variant:normal;font-weight:normal;font-stretch:normal;font-size:10.02px;font-family:Arial;-inkscape-font-specification:ArialMT;writing-mode:lr-tb;fill:#000000;fill-opacity:1;fill-rule:nonzero;stroke:none"
       id="text692"><tspan
         x="0"
         y="0"
         id="tspan690"></tspan></text><text
       transform="matrix(1,0,0,-1,130.44049,284.4803)"
       style="font-variant:normal;font-weight:normal;font-stretch:normal;font-size:10.02px;font-family:Arial;-inkscape-font-specification:ArialMT;writing-mode:lr-tb;fill:#000000;fill-opacity:1;fill-rule:nonzero;stroke:none"
       id="text696"><tspan
         x="0"
         y="0"
         id="tspan694">V</tspan></text><path
       d="m 117.66,258.14 v 1.2 l 0.06,0.36 0.06,0.42 0.12,0.42 v 0.36 l 0.12,0.42 0.12,0.36 0.12,0.36 0.18,0.48 0.18,0.36 0.12,0.36 0.18,0.3 0.18,0.36 0.18,0.36 0.24,0.36 0.18,0.3 0.24,0.3 0.24,0.36 0.24,0.3 0.24,0.3 0.3,0.36 0.24,0.24 0.3,0.24 0.3,0.3 0.24,0.24 0.36,0.24 0.6,0.48 0.36,0.24 0.3,0.18 0.36,0.18 0.36,0.24 0.72,0.36 0.72,0.24 0.42,0.12 0.36,0.12 0.42,0.06 0.42,0.12 0.42,0.06 0.36,0.06 0.84,0.12 h 2.52 l 0.42,-0.12 0.42,-0.06 0.36,-0.06 0.36,-0.12 0.36,-0.12 0.42,-0.12 0.42,-0.18 0.36,-0.12 0.36,-0.18 0.36,-0.12 0.3,-0.18 0.72,-0.48 0.36,-0.18 0.3,-0.24 0.3,-0.18 0.36,-0.3 0.3,-0.24 0.3,-0.3 0.3,-0.24 0.24,-0.24 0.24,-0.3 0.24,-0.3 0.24,-0.3 0.3,-0.3 0.18,-0.36 0.24,-0.3 0.36,-0.72 0.24,-0.36 0.18,-0.36 0.18,-0.36 0.12,-0.36 0.18,-0.36 0.12,-0.42 0.12,-0.36 0.06,-0.42 0.12,-0.36 0.12,-0.42 0.06,-0.42 v -0.42 l 0.06,-0.42 0.06,-0.42 v -1.26 l -0.06,-0.42 v -0.42 l -0.06,-0.42 -0.12,-0.36 -0.06,-0.42 -0.12,-0.36 -0.12,-0.36 -0.24,-0.84 -0.18,-0.36 -0.18,-0.36 -0.12,-0.36 -0.24,-0.36 -0.12,-0.3 -0.24,-0.36 -0.24,-0.36 -0.24,-0.3 -0.18,-0.3 -0.3,-0.36 -0.24,-0.3 -0.6,-0.6 -0.24,-0.24 -0.3,-0.24 -0.24,-0.24 -0.36,-0.3 -0.3,-0.24 -0.3,-0.18 -0.36,-0.24 -0.36,-0.18 -0.3,-0.18 -0.36,-0.24 -0.36,-0.18 -0.42,-0.18 -0.72,-0.24 -0.42,-0.12 -0.36,-0.18 -0.36,-0.06 -0.48,-0.12 -0.36,-0.12 h -0.42 l -0.84,-0.12 h -2.46 l -0.42,0.12 -0.42,0.06 -0.36,0.06 -0.36,0.12 -0.36,0.12 -0.42,0.12 -0.42,0.12 -0.36,0.18 -0.36,0.18 -0.36,0.12 -0.36,0.24 -0.36,0.18 -0.3,0.18 -0.36,0.24 -0.3,0.24 -0.3,0.18 -0.36,0.3 -0.3,0.24 -0.3,0.3 -0.3,0.3 -0.54,0.54 -0.24,0.24 -0.24,0.36 -0.24,0.3 -0.24,0.36 -0.18,0.3 -0.18,0.36 -0.18,0.3 -0.24,0.36 -0.18,0.36 -0.18,0.42 -0.12,0.36 -0.18,0.42 -0.06,0.36 -0.12,0.36 -0.12,0.42 -0.12,0.36 -0.06,0.48 -0.06,0.36 -0.12,0.84 v 0.9"
       style="fill:#ffffff;fill-opacity:1;fill-rule:evenodd;stroke:none"
       id="path698" /><path
       d="m 117.66,258.14 v 1.2 l 0.06,0.36 0.06,0.42 0.12,0.42 v 0.36 l 0.12,0.42 0.12,0.36 0.12,0.36 0.18,0.48 0.18,0.36 0.12,0.36 0.18,0.3 0.18,0.36 0.18,0.36 0.24,0.36 0.18,0.3 0.24,0.3 0.24,0.36 0.24,0.3 0.24,0.3 0.3,0.36 0.24,0.24 0.3,0.24 0.3,0.3 0.24,0.24 0.36,0.24 0.6,0.48 0.36,0.24 0.3,0.18 0.36,0.18 0.36,0.24 0.72,0.36 0.72,0.24 0.42,0.12 0.36,0.12 0.42,0.06 0.42,0.12 0.42,0.06 0.36,0.06 0.84,0.12 h 2.52 l 0.42,-0.12 0.42,-0.06 0.36,-0.06 0.36,-0.12 0.36,-0.12 0.42,-0.12 0.42,-0.18 0.36,-0.12 0.36,-0.18 0.36,-0.12 0.3,-0.18 0.72,-0.48 0.36,-0.18 0.3,-0.24 0.3,-0.18 0.36,-0.3 0.3,-0.24 0.3,-0.3 0.3,-0.24 0.24,-0.24 0.24,-0.3 0.24,-0.3 0.24,-0.3 0.3,-0.3 0.18,-0.36 0.24,-0.3 0.36,-0.72 0.24,-0.36 0.18,-0.36 0.18,-0.36 0.12,-0.36 0.18,-0.36 0.12,-0.42 0.12,-0.36 0.06,-0.42 0.12,-0.36 0.12,-0.42 0.06,-0.42 v -0.42 l 0.06,-0.42 0.06,-0.42 v -1.26 l -0.06,-0.42 v -0.42 l -0.06,-0.42 -0.12,-0.36 -0.06,-0.42 -0.12,-0.36 -0.12,-0.36 -0.24,-0.84 -0.18,-0.36 -0.18,-0.36 -0.12,-0.36 -0.24,-0.36 -0.12,-0.3 -0.24,-0.36 -0.24,-0.36 -0.24,-0.3 -0.18,-0.3 -0.3,-0.36 -0.24,-0.3 -0.6,-0.6 -0.24,-0.24 -0.3,-0.24 -0.24,-0.24 -0.36,-0.3 -0.3,-0.24 -0.3,-0.18 -0.36,-0.24 -0.36,-0.18 -0.3,-0.18 -0.36,-0.24 -0.36,-0.18 -0.42,-0.18 -0.72,-0.24 -0.42,-0.12 -0.36,-0.18 -0.36,-0.06 -0.48,-0.12 -0.36,-0.12 h -0.42 l -0.84,-0.12 h -2.46 l -0.42,0.12 -0.42,0.06 -0.36,0.06 -0.36,0.12 -0.36,0.12 -0.42,0.12 -0.42,0.12 -0.36,0.18 -0.36,0.18 -0.36,0.12 -0.36,0.24 -0.36,0.18 -0.3,0.18 -0.36,0.24 -0.3,0.24 -0.3,0.18 -0.36,0.3 -0.3,0.24 -0.3,0.3 -0.3,0.3 -0.54,0.54 -0.24,0.24 -0.24,0.36 -0.24,0.3 -0.24,0.36 -0.18,0.3 -0.18,0.36 -0.18,0.3 -0.24,0.36 -0.18,0.36 -0.18,0.42 -0.12,0.36 -0.18,0.42 -0.06,0.36 -0.12,0.36 -0.12,0.42 -0.12,0.36 -0.06,0.48 -0.06,0.36 -0.12,0.84 z"
       style="fill:none;stroke:#000000;stroke-width:1;stroke-linecap:round;stroke-linejoin:round;stroke-miterlimit:10;stroke-dasharray:none;stroke-opacity:1"
       id="path700" /><text
       transform="matrix(1,0,0,-1,127.02,254.3604)"
       style="font-variant:normal;font-weight:normal;font-stretch:normal;font-size:10.02px;font-family:Arial;-inkscape-font-specification:ArialMT;writing-mode:lr-tb;fill:#000000;fill-opacity:1;fill-rule:nonzero;stroke:none"
       id="text704"><tspan
         x="0"
         y="0"
         id="tspan702">V</tspan></text><path
       d="m 166.68,288.74 v 0.54 l 0.12,0.12 v 0.18 l 0.12,0.12 v 0.12 l 0.06,0.06 0.06,0.06 V 290 l 0.06,0.06 v 0.06 l 0.18,0.18 h 0.06 v 0.06 h 0.06 l 0.06,0.12 h 0.18 l 0.06,0.06 0.06,0.06 h 0.06 l 0.18,0.18 h 0.18 l 0.06,0.06 h 0.06 l 0.12,0.06 h 0.3 l 0.06,0.06 h 0.6 l 0.12,-0.06 h 0.06 l 0.06,-0.06 h 0.12 l 0.06,-0.06 h 0.06 v -0.06 h 0.06 l 0.06,-0.06 h 0.12 v -0.06 h 0.12 v -0.06 l 0.12,-0.06 0.12,-0.12 v -0.06 h 0.06 v -0.06 l 0.18,-0.18 v -0.12 l 0.06,-0.06 0.06,-0.06 0.06,-0.12 h 0.06 v -0.24 L 171,289.4 v -0.06 l 0.06,-0.12 v -0.24 l 0.06,-0.12 v -0.6 l -0.06,-0.06 v -0.12 L 171,288.02 v -0.12 h -0.06 v -0.12 h -0.06 l -0.06,-0.06 v -0.12 l -0.06,-0.06 -0.06,-0.06 v -0.06 l -0.12,-0.12 -0.06,-0.12 h -0.06 l -0.12,-0.12 -0.12,-0.06 -0.12,-0.06 -0.12,-0.06 -0.12,-0.12 h -0.06 l -0.06,-0.06 h -0.18 l -0.06,-0.06 h -0.3 l -0.12,-0.06 h -0.78 l -0.06,0.06 h -0.12 l -0.06,0.06 H 168 l -0.12,0.12 h -0.06 l -0.06,0.06 h -0.06 l -0.06,0.06 h -0.12 l -0.12,0.12 -0.06,0.12 h -0.06 v 0.12 l -0.12,0.12 v 0.06 l -0.06,0.06 v 0.06 l -0.12,0.12 -0.06,0.06 v 0.06 l -0.06,0.06 v 0.12 l -0.06,0.06 v 0.42 l -0.06,0.06 -0.06,0.12 v 0.06"
       style="fill:#ffffff;fill-opacity:1;fill-rule:evenodd;stroke:none"
       id="path706" /><path
       d="m 166.68,288.74 v 0.54 l 0.12,0.12 v 0.18 l 0.12,0.12 v 0.12 l 0.06,0.06 0.06,0.06 V 290 l 0.06,0.06 v 0.06 l 0.18,0.18 h 0.06 v 0.06 h 0.06 l 0.06,0.12 h 0.18 l 0.06,0.06 0.06,0.06 h 0.06 l 0.18,0.18 h 0.18 l 0.06,0.06 h 0.06 l 0.12,0.06 h 0.3 l 0.06,0.06 h 0.6 l 0.12,-0.06 h 0.06 l 0.06,-0.06 h 0.12 l 0.06,-0.06 h 0.06 v -0.06 h 0.06 l 0.06,-0.06 h 0.12 v -0.06 h 0.12 v -0.06 l 0.12,-0.06 0.12,-0.12 v -0.06 h 0.06 v -0.06 l 0.18,-0.18 v -0.12 l 0.06,-0.06 0.06,-0.06 0.06,-0.12 h 0.06 v -0.24 L 171,289.4 v -0.06 l 0.06,-0.12 v -0.24 l 0.06,-0.12 v -0.6 l -0.06,-0.06 v -0.12 L 171,288.02 v -0.12 h -0.06 v -0.12 h -0.06 l -0.06,-0.06 v -0.12 l -0.06,-0.06 -0.06,-0.06 v -0.06 l -0.12,-0.12 -0.06,-0.12 h -0.06 l -0.12,-0.12 -0.12,-0.06 -0.12,-0.06 -0.12,-0.06 -0.12,-0.12 h -0.06 l -0.06,-0.06 h -0.18 l -0.06,-0.06 h -0.3 l -0.12,-0.06 h -0.78 l -0.06,0.06 h -0.12 l -0.06,0.06 H 168 l -0.12,0.12 h -0.06 l -0.06,0.06 h -0.06 l -0.06,0.06 h -0.12 l -0.12,0.12 -0.06,0.12 h -0.06 v 0.12 l -0.12,0.12 v 0.06 l -0.06,0.06 v 0.06 l -0.12,0.12 -0.06,0.06 v 0.06 l -0.06,0.06 v 0.12 l -0.06,0.06 v 0.42 l -0.06,0.06 -0.06,0.12 z m 0.54,-29.76 v 0.54 l 0.06,0.06 v 0.12 l 0.06,0.06 v 0.06 l 0.06,0.06 v 0.06 l 0.06,0.06 v 0.06 l 0.06,0.06 v 0.06 l 0.06,0.06 v 0.06 l 0.12,0.06 v 0.06 l 0.12,0.06 v 0.06 l 0.12,0.06 0.06,0.06 h 0.06 l 0.12,0.12 h 0.12 l 0.06,0.12 h 0.06 l 0.06,0.06 0.06,0.06 h 0.18 l 0.12,0.06 h 0.3 l 0.06,0.06 h 0.78 l 0.06,-0.06 h 0.12 l 0.06,-0.06 h 0.06 l 0.12,-0.12 h 0.12 l 0.12,-0.12 h 0.12 l 0.06,-0.12 0.12,-0.12 H 171 v -0.12 l 0.12,-0.06 v -0.06 l 0.06,-0.06 v -0.06 l 0.06,-0.06 v -0.06 l 0.06,-0.06 0.06,-0.06 0.06,-0.06 v -0.18 l 0.06,-0.12 v -0.06 l 0.06,-0.12 v -0.18 l 0.06,-0.12 v -0.72 l -0.06,-0.06 -0.06,-0.12 v -0.06 l -0.06,-0.06 v -0.06 l -0.06,-0.06 v -0.06 l -0.06,-0.06 v -0.06 l -0.06,-0.06 v -0.06 L 171,257.42 v -0.06 h -0.06 l -0.12,-0.12 h -0.06 l -0.06,-0.06 h -0.06 l -0.06,-0.06 h -0.06 L 170.46,257 h -0.06 l -0.06,-0.06 -0.12,-0.06 h -0.24 l -0.12,-0.06 h -0.18 l -0.06,-0.06 h -0.78 l -0.12,0.06 -0.06,0.06 h -0.12 l -0.12,0.06 V 257 h -0.12 l -0.12,0.12 h -0.06 l -0.06,0.06 -0.06,0.06 -0.06,0.06 -0.12,0.06 v 0.06 l -0.12,0.12 v 0.06 l -0.06,0.06 -0.06,0.06 v 0.06 l -0.18,0.18 v 0.06 l -0.06,0.06 v 0.24 l -0.06,0.06 v 0.3 l -0.06,0.06 z"
       style="fill:none;stroke:#000000;stroke-width:1;stroke-linecap:round;stroke-linejoin:round;stroke-miterlimit:10;stroke-dasharray:none;stroke-opacity:1"
       id="path708" /><text
       transform="matrix(1,0,0,-1,126.42,345.5604)"
       style="font-variant:normal;font-weight:normal;font-stretch:normal;font-size:7.98px;font-family:Arial;-inkscape-font-specification:ArialMT;writing-mode:lr-tb;fill:#000000;fill-opacity:1;fill-rule:nonzero;stroke:none"
       id="text712"><tspan
         x="0"
         y="0"
         id="tspan710">1</tspan></text><text
       transform="matrix(1,0,0,-1,167.28,346.2203)"
       style="font-variant:normal;font-weight:normal;font-stretch:normal;font-size:7.98px;font-family:Arial;-inkscape-font-specification:ArialMT;writing-mode:lr-tb;fill:#000000;fill-opacity:1;fill-rule:nonzero;stroke:none"
       id="text716"><tspan
         x="0"
         y="0"
         id="tspan714">2</tspan></text><text
       transform="matrix(1,0,0,-1,208.44,345.5604)"
       style="font-variant:normal;font-weight:normal;font-stretch:normal;font-size:7.98px;font-family:Arial;-inkscape-font-specification:ArialMT;writing-mode:lr-tb;fill:#000000;fill-opacity:1;fill-rule:nonzero;stroke:none"
       id="text720"><tspan
         x="0"
         y="0"
         id="tspan718">3</tspan></text><text
       transform="matrix(1,0,0,-1,250.38,345.2603)"
       style="font-variant:normal;font-weight:normal;font-stretch:normal;font-size:7.98px;font-family:Arial;-inkscape-font-specification:ArialMT;writing-mode:lr-tb;fill:#000000;fill-opacity:1;fill-rule:nonzero;stroke:none"
       id="text730"><tspan
         x="0"
         y="0"
         id="tspan722">4</tspan><tspan
         x="40.200047 81.779839"
         y="-0.30004799"
         sodipodi:role="line"
         id="tspan724">56</tspan><tspan
         x="125.40012"
         y="0"
         id="tspan726">7</tspan><tspan
         x="164.94022 169.37869"
         y="-0.30004799"
         sodipodi:role="line"
         id="tspan728">8 </tspan></text><text
       transform="matrix(1,0,0,-1,457.14,346.2203)"
       style="font-variant:normal;font-weight:normal;font-stretch:normal;font-size:7.98px;font-family:Arial;-inkscape-font-specification:ArialMT;writing-mode:lr-tb;fill:#000000;fill-opacity:1;fill-rule:nonzero;stroke:none"
       id="text734"><tspan
         x="0 4.4384761"
         y="0"
         sodipodi:role="line"
         id="tspan732">9 </tspan></text><path
       d="m 456.54,338.36 v 0.48 l 0.06,0.06 v 0.12 l 0.06,0.06 v 0.06 l 0.06,0.06 v 0.06 h 0.06 v 0.12 l 0.06,0.06 v 0.06 l 0.06,0.06 v 0.06 h 0.06 l 0.24,0.24 v 0.06 l 0.12,0.06 h 0.06 l 0.12,0.12 h 0.12 l 0.06,0.12 h 0.06 l 0.06,0.06 h 0.18 l 0.06,0.06 h 0.06 l 0.06,0.06 h 0.3 l 0.06,0.06 h 0.6 l 0.12,-0.06 h 0.06 l 0.12,-0.06 h 0.06 l 0.06,-0.06 h 0.06 v -0.06 h 0.12 v -0.06 l 0.12,-0.06 h 0.12 v -0.06 l 0.24,-0.24 0.06,-0.06 0.06,-0.06 v -0.06 l 0.12,-0.12 v -0.06 l 0.12,-0.12 v -0.06 l 0.06,-0.06 v -0.18 l 0.06,-0.06 v -0.06 l 0.06,-0.06 v -0.3 l 0.06,-0.06 v -0.6 l -0.06,-0.12 v -0.06 l -0.06,-0.12 v -0.06 l -0.06,-0.06 v -0.06 h -0.06 v -0.12 h -0.06 v -0.12 l -0.06,-0.06 v -0.06 h -0.06 l -0.12,-0.12 -0.06,-0.12 h -0.06 l -0.12,-0.12 h -0.06 l -0.06,-0.06 -0.06,-0.06 h -0.06 l -0.06,-0.06 -0.06,-0.06 h -0.06 l -0.06,-0.06 h -0.18 l -0.06,-0.06 h -0.06 l -0.12,-0.06 h -0.3 l -0.06,-0.06 h -0.6 l -0.06,0.06 h -0.12 l -0.06,0.06 h -0.06 l -0.06,0.06 h -0.06 l -0.06,0.06 h -0.06 l -0.06,0.06 h -0.06 l -0.06,0.06 h -0.06 v 0.06 l -0.06,0.06 -0.12,0.06 v 0.06 h -0.06 l -0.06,0.06 v 0.06 l -0.12,0.12 v 0.06 l -0.06,0.06 v 0.06 l -0.06,0.06 -0.06,0.06 v 0.06 l -0.06,0.06 v 0.18 l -0.06,0.06 v 0.06 l -0.06,0.12 v 0.3 l -0.06,0.06 v 0.12"
       style="fill:#ffffff;fill-opacity:1;fill-rule:evenodd;stroke:none"
       id="path736" /><path
       d="m 456.54,338.36 v 0.48 l 0.06,0.06 v 0.12 l 0.06,0.06 v 0.06 l 0.06,0.06 v 0.06 h 0.06 v 0.12 l 0.06,0.06 v 0.06 l 0.06,0.06 v 0.06 h 0.06 l 0.24,0.24 v 0.06 l 0.12,0.06 h 0.06 l 0.12,0.12 h 0.12 l 0.06,0.12 h 0.06 l 0.06,0.06 h 0.18 l 0.06,0.06 h 0.06 l 0.06,0.06 h 0.3 l 0.06,0.06 h 0.6 l 0.12,-0.06 h 0.06 l 0.12,-0.06 h 0.06 l 0.06,-0.06 h 0.06 v -0.06 h 0.12 v -0.06 l 0.12,-0.06 h 0.12 v -0.06 l 0.24,-0.24 0.06,-0.06 0.06,-0.06 v -0.06 l 0.12,-0.12 v -0.06 l 0.12,-0.12 v -0.06 l 0.06,-0.06 v -0.18 l 0.06,-0.06 v -0.06 l 0.06,-0.06 v -0.3 l 0.06,-0.06 v -0.6 l -0.06,-0.12 v -0.06 l -0.06,-0.12 v -0.06 l -0.06,-0.06 v -0.06 h -0.06 v -0.12 h -0.06 v -0.12 l -0.06,-0.06 v -0.06 h -0.06 l -0.12,-0.12 -0.06,-0.12 h -0.06 l -0.12,-0.12 h -0.06 l -0.06,-0.06 -0.06,-0.06 h -0.06 l -0.06,-0.06 -0.06,-0.06 h -0.06 l -0.06,-0.06 h -0.18 l -0.06,-0.06 h -0.06 l -0.12,-0.06 h -0.3 l -0.06,-0.06 h -0.6 l -0.06,0.06 h -0.12 l -0.06,0.06 h -0.06 l -0.06,0.06 h -0.06 l -0.06,0.06 h -0.06 l -0.06,0.06 h -0.06 l -0.06,0.06 h -0.06 v 0.06 l -0.06,0.06 -0.12,0.06 v 0.06 h -0.06 l -0.06,0.06 v 0.06 l -0.12,0.12 v 0.06 l -0.06,0.06 v 0.06 l -0.06,0.06 -0.06,0.06 v 0.06 l -0.06,0.06 v 0.18 l -0.06,0.06 v 0.06 l -0.06,0.12 v 0.3 l -0.06,0.06 z"
       style="fill:none;stroke:#000000;stroke-width:1;stroke-linecap:round;stroke-linejoin:round;stroke-miterlimit:10;stroke-dasharray:none;stroke-opacity:1"
       id="path738" /><path
       d="m 456.54,338.36 v 0.48 l 0.06,0.06 v 0.12 l 0.06,0.06 v 0.06 l 0.06,0.06 v 0.06 h 0.06 v 0.12 l 0.06,0.06 v 0.06 l 0.06,0.06 v 0.06 h 0.06 l 0.24,0.24 v 0.06 l 0.12,0.06 h 0.06 l 0.12,0.12 h 0.12 l 0.06,0.12 h 0.06 l 0.06,0.06 h 0.18 l 0.06,0.06 h 0.06 l 0.06,0.06 h 0.3 l 0.06,0.06 h 0.6 l 0.12,-0.06 h 0.06 l 0.12,-0.06 h 0.06 l 0.06,-0.06 h 0.06 v -0.06 h 0.12 v -0.06 l 0.12,-0.06 h 0.12 v -0.06 l 0.24,-0.24 0.06,-0.06 0.06,-0.06 v -0.06 l 0.12,-0.12 v -0.06 l 0.12,-0.12 v -0.06 l 0.06,-0.06 v -0.18 l 0.06,-0.06 v -0.06 l 0.06,-0.06 v -0.3 l 0.06,-0.06 v -0.6 l -0.06,-0.12 v -0.06 l -0.06,-0.12 v -0.06 l -0.06,-0.06 v -0.06 h -0.06 v -0.12 h -0.06 v -0.12 l -0.06,-0.06 v -0.06 h -0.06 l -0.12,-0.12 -0.06,-0.12 h -0.06 l -0.12,-0.12 h -0.06 l -0.06,-0.06 -0.06,-0.06 h -0.06 l -0.06,-0.06 -0.06,-0.06 h -0.06 l -0.06,-0.06 h -0.18 l -0.06,-0.06 h -0.06 l -0.12,-0.06 h -0.3 l -0.06,-0.06 h -0.6 l -0.06,0.06 h -0.12 l -0.06,0.06 h -0.06 l -0.06,0.06 h -0.06 l -0.06,0.06 h -0.06 l -0.06,0.06 h -0.06 l -0.06,0.06 h -0.06 v 0.06 l -0.06,0.06 -0.12,0.06 v 0.06 h -0.06 l -0.06,0.06 v 0.06 l -0.12,0.12 v 0.06 l -0.06,0.06 v 0.06 l -0.06,0.06 -0.06,0.06 v 0.06 l -0.06,0.06 v 0.18 l -0.06,0.06 v 0.06 l -0.06,0.12 v 0.3 l -0.06,0.06 v 0.12"
       style="fill:#ffffff;fill-opacity:1;fill-rule:evenodd;stroke:none"
       id="path740" /><path
       d="m 456.54,338.36 v 0.48 l 0.06,0.06 v 0.12 l 0.06,0.06 v 0.06 l 0.06,0.06 v 0.06 h 0.06 v 0.12 l 0.06,0.06 v 0.06 l 0.06,0.06 v 0.06 h 0.06 l 0.24,0.24 v 0.06 l 0.12,0.06 h 0.06 l 0.12,0.12 h 0.12 l 0.06,0.12 h 0.06 l 0.06,0.06 h 0.18 l 0.06,0.06 h 0.06 l 0.06,0.06 h 0.3 l 0.06,0.06 h 0.6 l 0.12,-0.06 h 0.06 l 0.12,-0.06 h 0.06 l 0.06,-0.06 h 0.06 v -0.06 h 0.12 v -0.06 l 0.12,-0.06 h 0.12 v -0.06 l 0.24,-0.24 0.06,-0.06 0.06,-0.06 v -0.06 l 0.12,-0.12 v -0.06 l 0.12,-0.12 v -0.06 l 0.06,-0.06 v -0.18 l 0.06,-0.06 v -0.06 l 0.06,-0.06 v -0.3 l 0.06,-0.06 v -0.6 l -0.06,-0.12 v -0.06 l -0.06,-0.12 v -0.06 l -0.06,-0.06 v -0.06 h -0.06 v -0.12 h -0.06 v -0.12 l -0.06,-0.06 v -0.06 h -0.06 l -0.12,-0.12 -0.06,-0.12 h -0.06 l -0.12,-0.12 h -0.06 l -0.06,-0.06 -0.06,-0.06 h -0.06 l -0.06,-0.06 -0.06,-0.06 h -0.06 l -0.06,-0.06 h -0.18 l -0.06,-0.06 h -0.06 l -0.12,-0.06 h -0.3 l -0.06,-0.06 h -0.6 l -0.06,0.06 h -0.12 l -0.06,0.06 h -0.06 l -0.06,0.06 h -0.06 l -0.06,0.06 h -0.06 l -0.06,0.06 h -0.06 l -0.06,0.06 h -0.06 v 0.06 l -0.06,0.06 -0.12,0.06 v 0.06 h -0.06 l -0.06,0.06 v 0.06 l -0.12,0.12 v 0.06 l -0.06,0.06 v 0.06 l -0.06,0.06 -0.06,0.06 v 0.06 l -0.06,0.06 v 0.18 l -0.06,0.06 v 0.06 l -0.06,0.12 v 0.3 l -0.06,0.06 z"
       style="fill:none;stroke:#000000;stroke-width:1;stroke-linecap:round;stroke-linejoin:round;stroke-miterlimit:10;stroke-dasharray:none;stroke-opacity:1"
       id="path742" /><path
       d="m 495.54,338.6 v 0.48 l 0.06,0.06 v 0.06 l 0.12,0.24 0.06,0.06 0.06,0.06 v 0.06 l 0.06,0.06 v 0.06 l 0.06,0.06 v 0.06 l 0.18,0.18 h 0.06 v 0.06 l 0.06,0.06 h 0.06 l 0.12,0.12 h 0.12 l 0.06,0.06 0.06,0.06 h 0.06 l 0.06,0.06 0.06,0.06 h 0.24 v 0.06 h 0.3 l 0.06,0.06 h 0.78 l 0.06,-0.06 h 0.12 l 0.06,-0.06 h 0.06 l 0.06,-0.06 0.06,-0.06 h 0.12 l 0.12,-0.12 h 0.12 v -0.12 h 0.12 l 0.06,-0.12 0.18,-0.18 v -0.06 l 0.06,-0.06 v -0.06 l 0.06,-0.12 h 0.06 v -0.12 h 0.06 v -0.24 l 0.06,-0.06 v -0.06 l 0.06,-0.06 v -0.18 l 0.06,-0.12 V 338 l -0.06,-0.12 -0.06,-0.06 v -0.06 l -0.06,-0.06 v -0.06 h -0.06 v -0.12 l -0.06,-0.06 v -0.06 l -0.06,-0.06 v -0.06 h -0.06 l -0.12,-0.12 -0.06,-0.12 h -0.06 v -0.06 l -0.24,-0.12 v -0.06 h -0.18 l -0.06,-0.12 h -0.06 l -0.06,-0.06 h -0.18 l -0.06,-0.06 h -0.06 l -0.12,-0.06 h -0.3 l -0.06,-0.06 h -0.6 l -0.06,0.06 h -0.12 l -0.06,0.06 h -0.06 l -0.06,0.06 h -0.06 v 0.06 h -0.12 v 0.06 l -0.12,0.06 h -0.12 v 0.06 l -0.18,0.18 h -0.06 v 0.06 l -0.12,0.12 v 0.06 l -0.06,0.06 v 0.06 l -0.06,0.06 v 0.06 l -0.18,0.18 v 0.18 l -0.06,0.06 V 338 l -0.06,0.12 v 0.24 l -0.06,0.12 v 0.12"
       style="fill:#ffffff;fill-opacity:1;fill-rule:evenodd;stroke:none"
       id="path744" /><path
       d="m 495.54,338.6 v 0.48 l 0.06,0.06 v 0.06 l 0.12,0.24 0.06,0.06 0.06,0.06 v 0.06 l 0.06,0.06 v 0.06 l 0.06,0.06 v 0.06 l 0.18,0.18 h 0.06 v 0.06 l 0.06,0.06 h 0.06 l 0.12,0.12 h 0.12 l 0.06,0.06 0.06,0.06 h 0.06 l 0.06,0.06 0.06,0.06 h 0.24 v 0.06 h 0.3 l 0.06,0.06 h 0.78 l 0.06,-0.06 h 0.12 l 0.06,-0.06 h 0.06 l 0.06,-0.06 0.06,-0.06 h 0.12 l 0.12,-0.12 h 0.12 v -0.12 h 0.12 l 0.06,-0.12 0.18,-0.18 v -0.06 l 0.06,-0.06 v -0.06 l 0.06,-0.12 h 0.06 v -0.12 h 0.06 v -0.24 l 0.06,-0.06 v -0.06 l 0.06,-0.06 v -0.18 l 0.06,-0.12 V 338 l -0.06,-0.12 -0.06,-0.06 v -0.06 l -0.06,-0.06 v -0.06 h -0.06 v -0.12 l -0.06,-0.06 v -0.06 l -0.06,-0.06 v -0.06 h -0.06 l -0.12,-0.12 -0.06,-0.12 h -0.06 v -0.06 l -0.24,-0.12 v -0.06 h -0.18 l -0.06,-0.12 h -0.06 l -0.06,-0.06 h -0.18 l -0.06,-0.06 h -0.06 l -0.12,-0.06 h -0.3 l -0.06,-0.06 h -0.6 l -0.06,0.06 h -0.12 l -0.06,0.06 h -0.06 l -0.06,0.06 h -0.06 v 0.06 h -0.12 v 0.06 l -0.12,0.06 h -0.12 v 0.06 l -0.18,0.18 h -0.06 v 0.06 l -0.12,0.12 v 0.06 l -0.06,0.06 v 0.06 l -0.06,0.06 v 0.06 l -0.18,0.18 v 0.18 l -0.06,0.06 V 338 l -0.06,0.12 v 0.24 l -0.06,0.12 z"
       style="fill:none;stroke:#000000;stroke-width:1;stroke-linecap:round;stroke-linejoin:round;stroke-miterlimit:10;stroke-dasharray:none;stroke-opacity:1"
       id="path746" /><path
       d="m 495.54,338.6 v 0.48 l 0.06,0.06 v 0.06 l 0.12,0.24 0.06,0.06 0.06,0.06 v 0.06 l 0.06,0.06 v 0.06 l 0.06,0.06 v 0.06 l 0.18,0.18 h 0.06 v 0.06 l 0.06,0.06 h 0.06 l 0.12,0.12 h 0.12 l 0.06,0.06 0.06,0.06 h 0.06 l 0.06,0.06 0.06,0.06 h 0.24 v 0.06 h 0.3 l 0.06,0.06 h 0.78 l 0.06,-0.06 h 0.12 l 0.06,-0.06 h 0.06 l 0.06,-0.06 0.06,-0.06 h 0.12 l 0.12,-0.12 h 0.12 v -0.12 h 0.12 l 0.06,-0.12 0.18,-0.18 v -0.06 l 0.06,-0.06 v -0.06 l 0.06,-0.12 h 0.06 v -0.12 h 0.06 v -0.24 l 0.06,-0.06 v -0.06 l 0.06,-0.06 v -0.18 l 0.06,-0.12 V 338 l -0.06,-0.12 -0.06,-0.06 v -0.06 l -0.06,-0.06 v -0.06 h -0.06 v -0.12 l -0.06,-0.06 v -0.06 l -0.06,-0.06 v -0.06 h -0.06 l -0.12,-0.12 -0.06,-0.12 h -0.06 v -0.06 l -0.24,-0.12 v -0.06 h -0.18 l -0.06,-0.12 h -0.06 l -0.06,-0.06 h -0.18 l -0.06,-0.06 h -0.06 l -0.12,-0.06 h -0.3 l -0.06,-0.06 h -0.6 l -0.06,0.06 h -0.12 l -0.06,0.06 h -0.06 l -0.06,0.06 h -0.06 v 0.06 h -0.12 v 0.06 l -0.12,0.06 h -0.12 v 0.06 l -0.18,0.18 h -0.06 v 0.06 l -0.12,0.12 v 0.06 l -0.06,0.06 v 0.06 l -0.06,0.06 v 0.06 l -0.18,0.18 v 0.18 l -0.06,0.06 V 338 l -0.06,0.12 v 0.24 l -0.06,0.12 v 0.12"
       style="fill:#ffffff;fill-opacity:1;fill-rule:evenodd;stroke:none"
       id="path748" /><path
       d="m 495.54,338.6 v 0.48 l 0.06,0.06 v 0.06 l 0.12,0.24 0.06,0.06 0.06,0.06 v 0.06 l 0.06,0.06 v 0.06 l 0.06,0.06 v 0.06 l 0.18,0.18 h 0.06 v 0.06 l 0.06,0.06 h 0.06 l 0.12,0.12 h 0.12 l 0.06,0.06 0.06,0.06 h 0.06 l 0.06,0.06 0.06,0.06 h 0.24 v 0.06 h 0.3 l 0.06,0.06 h 0.78 l 0.06,-0.06 h 0.12 l 0.06,-0.06 h 0.06 l 0.06,-0.06 0.06,-0.06 h 0.12 l 0.12,-0.12 h 0.12 v -0.12 h 0.12 l 0.06,-0.12 0.18,-0.18 v -0.06 l 0.06,-0.06 v -0.06 l 0.06,-0.12 h 0.06 v -0.12 h 0.06 v -0.24 l 0.06,-0.06 v -0.06 l 0.06,-0.06 v -0.18 l 0.06,-0.12 V 338 l -0.06,-0.12 -0.06,-0.06 v -0.06 l -0.06,-0.06 v -0.06 h -0.06 v -0.12 l -0.06,-0.06 v -0.06 l -0.06,-0.06 v -0.06 h -0.06 l -0.12,-0.12 -0.06,-0.12 h -0.06 v -0.06 l -0.24,-0.12 v -0.06 h -0.18 l -0.06,-0.12 h -0.06 l -0.06,-0.06 h -0.18 l -0.06,-0.06 h -0.06 l -0.12,-0.06 h -0.3 l -0.06,-0.06 h -0.6 l -0.06,0.06 h -0.12 l -0.06,0.06 h -0.06 l -0.06,0.06 h -0.06 v 0.06 h -0.12 v 0.06 l -0.12,0.06 h -0.12 v 0.06 l -0.18,0.18 h -0.06 v 0.06 l -0.12,0.12 v 0.06 l -0.06,0.06 v 0.06 l -0.06,0.06 v 0.06 l -0.18,0.18 v 0.18 l -0.06,0.06 V 338 l -0.06,0.12 v 0.24 l -0.06,0.12 z"
       style="fill:none;stroke:#000000;stroke-width:1;stroke-linecap:round;stroke-linejoin:round;stroke-miterlimit:10;stroke-dasharray:none;stroke-opacity:1"
       id="path750" /><path
       d="m 85.74,338.06 v 0.54 l 0.06,0.06 v 0.06 l 0.06,0.12 v 0.06 l 0.06,0.06 v 0.06 h 0.06 v 0.06 l 0.06,0.12 h 0.06 v 0.12 l 0.12,0.12 0.06,0.06 0.12,0.12 0.06,0.06 0.12,0.12 h 0.12 l 0.06,0.06 0.06,0.06 0.06,0.06 h 0.06 l 0.06,0.06 h 0.18 l 0.06,0.06 h 0.06 l 0.06,0.06 h 0.3 l 0.12,0.06 h 0.54 l 0.12,-0.06 h 0.06 l 0.12,-0.06 h 0.06 l 0.06,-0.06 h 0.06 v -0.06 h 0.12 v -0.06 h 0.12 l 0.24,-0.24 0.12,-0.06 v -0.06 l 0.06,-0.06 0.06,-0.06 v -0.06 l 0.12,-0.12 v -0.06 l 0.12,-0.12 v -0.06 l 0.06,-0.06 v -0.24 h 0.06 v -0.12 l 0.06,-0.06 v -0.18 L 90,338.3 v -0.78 l -0.06,-0.06 -0.06,-0.12 v -0.06 l -0.06,-0.06 v -0.06 l -0.06,-0.06 v -0.06 l -0.06,-0.06 v -0.06 l -0.06,-0.06 v -0.06 l -0.18,-0.18 -0.06,-0.06 -0.06,-0.06 h -0.06 l -0.06,-0.12 H 89.1 l -0.06,-0.06 -0.06,-0.06 h -0.06 l -0.12,-0.12 h -0.06 l -0.06,-0.06 H 88.5 l -0.06,-0.06 h -0.3 l -0.12,-0.06 H 87.3 l -0.12,0.06 h -0.06 l -0.06,0.06 H 87 l -0.06,0.06 -0.12,0.06 -0.12,0.06 h -0.06 l -0.06,0.06 v 0.06 h -0.06 l -0.06,0.12 -0.06,0.06 h -0.06 v 0.06 h -0.06 l -0.06,0.06 v 0.06 l -0.06,0.12 H 86.1 v 0.12 l -0.12,0.12 v 0.06 l -0.06,0.06 v 0.18 l -0.06,0.06 v 0.06 l -0.06,0.12 v 0.3 L 85.74,338 v 0.06"
       style="fill:#ffffff;fill-opacity:1;fill-rule:evenodd;stroke:none"
       id="path752" /><path
       d="m 85.74,338.06 v 0.54 l 0.06,0.06 v 0.06 l 0.06,0.12 v 0.06 l 0.06,0.06 v 0.06 h 0.06 v 0.06 l 0.06,0.12 h 0.06 v 0.12 l 0.12,0.12 0.06,0.06 0.12,0.12 0.06,0.06 0.12,0.12 h 0.12 l 0.06,0.06 0.06,0.06 0.06,0.06 h 0.06 l 0.06,0.06 h 0.18 l 0.06,0.06 h 0.06 l 0.06,0.06 h 0.3 l 0.12,0.06 h 0.54 l 0.12,-0.06 h 0.06 l 0.12,-0.06 h 0.06 l 0.06,-0.06 h 0.06 v -0.06 h 0.12 v -0.06 h 0.12 l 0.24,-0.24 0.12,-0.06 v -0.06 l 0.06,-0.06 0.06,-0.06 v -0.06 l 0.12,-0.12 v -0.06 l 0.12,-0.12 v -0.06 l 0.06,-0.06 v -0.24 h 0.06 v -0.12 l 0.06,-0.06 v -0.18 L 90,338.3 v -0.78 l -0.06,-0.06 -0.06,-0.12 v -0.06 l -0.06,-0.06 v -0.06 l -0.06,-0.06 v -0.06 l -0.06,-0.06 v -0.06 l -0.06,-0.06 v -0.06 l -0.18,-0.18 -0.06,-0.06 -0.06,-0.06 h -0.06 l -0.06,-0.12 H 89.1 l -0.06,-0.06 -0.06,-0.06 h -0.06 l -0.12,-0.12 h -0.06 l -0.06,-0.06 H 88.5 l -0.06,-0.06 h -0.3 l -0.12,-0.06 H 87.3 l -0.12,0.06 h -0.06 l -0.06,0.06 H 87 l -0.06,0.06 -0.12,0.06 -0.12,0.06 h -0.06 l -0.06,0.06 v 0.06 h -0.06 l -0.06,0.12 -0.06,0.06 h -0.06 v 0.06 h -0.06 l -0.06,0.06 v 0.06 l -0.06,0.12 H 86.1 v 0.12 l -0.12,0.12 v 0.06 l -0.06,0.06 v 0.18 l -0.06,0.06 v 0.06 l -0.06,0.12 v 0.3 L 85.74,338 Z"
       style="fill:none;stroke:#000000;stroke-width:1;stroke-linecap:round;stroke-linejoin:round;stroke-miterlimit:10;stroke-dasharray:none;stroke-opacity:1"
       id="path754" /><text
       transform="matrix(1,0,0,-1,89.82,345.5604)"
       style="font-variant:normal;font-weight:normal;font-stretch:normal;font-size:7.98px;font-family:Arial;-inkscape-font-specification:ArialMT;writing-mode:lr-tb;fill:#000000;fill-opacity:1;fill-rule:nonzero;stroke:none"
       id="text758"><tspan
         x="0"
         y="0"
         id="tspan756">0</tspan></text><text
       transform="matrix(1,0,0,-1,396.96,313.7003)"
       style="font-variant:normal;font-weight:normal;font-stretch:normal;font-size:10.02px;font-family:Arial;-inkscape-font-specification:ArialMT;writing-mode:lr-tb;fill:#000000;fill-opacity:1;fill-rule:nonzero;stroke:none"
       id="text762"><tspan
         x="0 7.7855401 15.00996 21.683281 29.468821 36.693241 44.478779 51.1521 57.82542 60.526814"
         y="0"
         sodipodi:role="line"
         id="tspan760">ODPOROV D</tspan></text><text
       transform="matrix(1,0,0,-1,464.76033,313.7003)"
       style="font-variant:normal;font-weight:normal;font-stretch:normal;font-size:10.02px;font-family:Arial;-inkscape-font-specification:ArialMT;writing-mode:lr-tb;fill:#000000;fill-opacity:1;fill-rule:nonzero;stroke:none"
       id="text766"><tspan
         x="0"
         y="0"
         id="tspan764"></tspan></text><text
       transform="matrix(1,0,0,-1,471.42062,313.7003)"
       style="font-variant:normal;font-weight:normal;font-stretch:normal;font-size:10.02px;font-family:Arial;-inkscape-font-specification:ArialMT;writing-mode:lr-tb;fill:#000000;fill-opacity:1;fill-rule:nonzero;stroke:none"
       id="text770"><tspan
         x="0 5.5781341"
         y="0"
         sodipodi:role="line"
         id="tspan768">LI</tspan></text><text
       transform="matrix(1,0,0,-1,479.76027,313.7003)"
       style="font-variant:normal;font-weight:normal;font-stretch:normal;font-size:10.02px;font-family:Arial;-inkscape-font-specification:ArialMT;writing-mode:lr-tb;fill:#000000;fill-opacity:1;fill-rule:nonzero;stroke:none"
       id="text774"><tspan
         x="0"
         y="0"
         id="tspan772"></tspan></text><path
       d="M 286.2,370.52 V 371 h -0.06 v 0.12 l -0.06,0.06 v 0.12 h -0.06 v 0.06 l -0.06,0.06 v 0.06 l -0.06,0.06 v 0.06 l -0.06,0.06 v 0.06 l -0.12,0.12 -0.12,0.06 -0.18,0.18 h -0.06 l -0.06,0.06 h -0.06 l -0.12,0.12 h -0.06 l -0.12,0.12 h -0.24 l -0.06,0.06 h -0.18 l -0.06,0.06 h -0.78 l -0.06,-0.06 -0.06,-0.06 h -0.18 v -0.06 l -0.06,-0.06 h -0.06 l -0.06,-0.06 h -0.06 l -0.06,-0.06 h -0.06 l -0.06,-0.06 -0.06,-0.06 -0.12,-0.12 v -0.06 l -0.12,-0.06 v -0.12 l -0.06,-0.06 h -0.06 v -0.12 h -0.06 l -0.06,-0.12 v -0.06 l -0.06,-0.06 v -0.18 L 282.24,371 v -0.24 l -0.06,-0.06 -0.06,-0.12 v -0.6 l 0.12,-0.12 v -0.06 l 0.06,-0.06 v -0.06 l 0.06,-0.06 v -0.06 l 0.06,-0.06 v -0.06 l 0.06,-0.06 v -0.06 l 0.36,-0.36 v -0.06 h 0.12 l 0.06,-0.06 h 0.06 l 0.06,-0.06 h 0.06 l 0.06,-0.06 0.06,-0.06 h 0.06 l 0.06,-0.06 h 0.18 l 0.06,-0.06 h 0.24 l 0.12,-0.06 h 0.72 v 0.06 h 0.12 v 0.06 H 285 l 0.06,0.06 h 0.06 l 0.06,0.06 h 0.06 l 0.06,0.06 h 0.06 v 0.06 l 0.24,0.24 h 0.06 l 0.06,0.12 0.06,0.06 v 0.06 l 0.06,0.06 v 0.06 l 0.06,0.06 0.06,0.06 v 0.06 l 0.06,0.06 v 0.18 l 0.06,0.06 v 0.06 l 0.06,0.06 v 0.24 l 0.06,0.12 z m 0,0 V 371 h -0.06 v 0.12 l -0.06,0.06 v 0.12 h -0.06 v 0.06 l -0.06,0.06 v 0.06 l -0.06,0.06 v 0.06 l -0.06,0.06 v 0.06 l -0.12,0.12 -0.12,0.06 -0.18,0.18 h -0.06 l -0.06,0.06 h -0.06 l -0.12,0.12 h -0.06 l -0.12,0.12 h -0.24 l -0.06,0.06 h -0.18 l -0.06,0.06 h -0.78 l -0.06,-0.06 -0.06,-0.06 h -0.18 v -0.06 l -0.06,-0.06 h -0.06 l -0.06,-0.06 h -0.06 l -0.06,-0.06 h -0.06 l -0.06,-0.06 -0.06,-0.06 -0.12,-0.12 v -0.06 l -0.12,-0.06 v -0.12 l -0.06,-0.06 h -0.06 v -0.12 h -0.06 l -0.06,-0.12 v -0.06 l -0.06,-0.06 v -0.18 L 282.24,371 v -0.24 l -0.06,-0.06 -0.06,-0.12 v -0.6 l 0.12,-0.12 v -0.06 l 0.06,-0.06 v -0.06 l 0.06,-0.06 v -0.06 l 0.06,-0.06 v -0.06 l 0.06,-0.06 v -0.06 l 0.36,-0.36 v -0.06 h 0.12 l 0.06,-0.06 h 0.06 l 0.06,-0.06 h 0.06 l 0.06,-0.06 0.06,-0.06 h 0.06 l 0.06,-0.06 h 0.18 l 0.06,-0.06 h 0.24 l 0.12,-0.06 h 0.72 v 0.06 h 0.12 v 0.06 H 285 l 0.06,0.06 h 0.06 l 0.06,0.06 h 0.06 l 0.06,0.06 h 0.06 v 0.06 l 0.24,0.24 h 0.06 l 0.06,0.12 0.06,0.06 v 0.06 l 0.06,0.06 v 0.06 l 0.06,0.06 0.06,0.06 v 0.06 l 0.06,0.06 v 0.18 l 0.06,0.06 v 0.06 l 0.06,0.06 v 0.24 l 0.06,0.12 z"
       style="fill:none;stroke:#000000;stroke-width:1;stroke-linecap:round;stroke-linejoin:round;stroke-miterlimit:10;stroke-dasharray:none;stroke-opacity:1"
       id="path776" /><path
       d="m 259.56,334.34 h 23.4 v 6.12 h -23.4 z"
       style="fill:#ffffff;fill-opacity:1;fill-rule:nonzero;stroke:none"
       id="path778" /><path
       d="m 282.96,340.46 h -23.4 v -6.12 h 23.4 z m -23.4,0 z"
       style="fill:none;stroke:#000000;stroke-width:1;stroke-linecap:round;stroke-linejoin:miter;stroke-miterlimit:8;stroke-dasharray:none;stroke-opacity:1"
       id="path780" /><path
       d="m 177.3,260.24 1.86,0.12 3.78,0.42 3.72,0.6 3.66,0.78 3.6,0.9 3.48,1.08 3.42,1.14 3.36,1.38 3.3,1.44 3.12,1.62 3.12,1.74 2.94,1.8 2.88,1.98 2.76,2.1 2.64,2.22 2.58,2.28 2.4,2.4 2.28,2.52 2.16,2.58 2.04,2.7 1.86,2.76 1.74,2.88 1.62,2.94 1.44,3 1.32,3.12 1.14,3.12 0.96,3.24 0.84,3.24 0.6,3.3 0.48,3.42 0.24,3.42 0.06,1.44 1.02,-0.06 -0.06,-1.5 -0.3,-3.48 -0.48,-3.42 -0.6,-3.36 -0.84,-3.3 -1.02,-3.3 -1.14,-3.18 -1.32,-3.12 -1.44,-3.06 -1.62,-3 -1.8,-2.88 -1.92,-2.82 -2.04,-2.7 -2.22,-2.64 -2.28,-2.58 -2.46,-2.4 -2.58,-2.34 -2.7,-2.22 -2.76,-2.1 -2.94,-2.04 -3,-1.86 -3.12,-1.74 -3.24,-1.62 -3.3,-1.5 -3.36,-1.32 -3.48,-1.2 -3.54,-1.08 -3.66,-0.9 -3.66,-0.78 -3.78,-0.6 -3.84,-0.42 -1.86,-0.18 z m 6.06,-3.06 -7.32,2.46 6.9,3.48 c 0.24,0.12 0.54,0 0.66,-0.24 0.12,-0.24 0,-0.54 -0.24,-0.66 l -5.76,-2.94 -0.12,0.96 6.18,-2.1 c 0.24,-0.06 0.42,-0.36 0.3,-0.6 -0.06,-0.3 -0.36,-0.42 -0.6,-0.36 z m 62.7,64.98 3.18,7.02 2.76,-7.14 c 0.12,-0.3 0,-0.54 -0.3,-0.66 -0.24,-0.12 -0.54,0 -0.66,0.3 l -2.34,6.06 0.96,-0.06 -2.64,-5.94 c -0.12,-0.24 -0.42,-0.36 -0.66,-0.24 -0.3,0.12 -0.42,0.42 -0.3,0.66"
       style="fill:#000000;fill-opacity:1;fill-rule:nonzero;stroke:none"
       id="path782" /><path
       d="m 176.34,288.8 1.98,0.06 2.04,0.12 0.06,-0.96 -2.1,-0.18 -1.92,-0.06 z m 6.96,0.42 2.64,0.3 1.32,0.12 0.12,-0.96 -1.32,-0.18 -2.64,-0.24 z m 6.96,0.84 3.9,0.6 0.18,-0.96 -0.84,-0.18 -3.12,-0.48 z m 6.84,1.14 3.36,0.66 0.54,0.18 0.24,-1.02 -0.6,-0.12 -3.3,-0.66 z m 6.84,1.5 3.24,0.9 0.6,0.18 0.3,-0.96 -0.6,-0.18 -3.3,-0.9 z m 6.66,1.92 3,1.02 0.78,0.3 0.36,-0.96 -0.84,-0.3 -2.94,-0.96 z m 6.6,2.4 2.34,0.96 1.32,0.6 0.42,-0.96 -1.32,-0.54 -2.4,-1.02 z m 6.36,2.82 1.56,0.78 1.92,1.08 0.48,-0.9 -1.98,-1.08 -1.56,-0.78 z m 6.06,3.36 0.54,0.3 2.34,1.5 0.42,0.36 0.6,-0.84 -0.48,-0.36 -2.4,-1.56 -0.48,-0.3 z m 5.7,3.9 1.44,1.14 1.62,1.44 0.66,-0.78 -1.68,-1.44 -1.38,-1.14 z m 5.16,4.62 1.56,1.74 1.02,1.26 0.78,-0.6 -1.02,-1.32 -1.62,-1.74 z m 4.32,5.4 0.06,0.06 1.14,1.86 0.72,1.5 0.9,-0.42 -0.78,-1.56 -1.2,-1.98 z m 3.06,6.12 0.54,1.74 0.48,2.04 0.96,-0.12 v -0.12 l -0.48,-2.1 -0.54,-1.74 z m 1.32,6.72 0.06,1.2 1.02,-0.06 -0.06,-1.2 z m -66.9,-44.4 -7.2,2.7 6.96,3.24 c 0.3,0.12 0.54,0 0.66,-0.24 0.12,-0.24 0.06,-0.54 -0.24,-0.66 l -5.88,-2.76 v 0.9 l 6.06,-2.22 c 0.3,-0.12 0.42,-0.42 0.3,-0.66 -0.06,-0.24 -0.36,-0.36 -0.66,-0.3"
       style="fill:#000000;fill-opacity:1;fill-rule:nonzero;stroke:none"
       id="path784" /><text
       transform="matrix(1,0,0,-1,499.92,346.2203)"
       style="font-variant:normal;font-weight:normal;font-stretch:normal;font-size:7.98px;font-family:Arial;-inkscape-font-specification:ArialMT;writing-mode:lr-tb;fill:#000000;fill-opacity:1;fill-rule:nonzero;stroke:none"
       id="text788"><tspan
         x="0 4.4384761"
         y="0"
         sodipodi:role="line"
         id="tspan786">10</tspan></text><text
       transform="matrix(1,0,0,-1,123,314.6603)"
       style="font-variant:normal;font-weight:normal;font-stretch:normal;font-size:10.02px;font-family:Arial;-inkscape-font-specification:ArialMT;writing-mode:lr-tb;fill:#000000;fill-opacity:1;fill-rule:nonzero;stroke:none"
       id="text792"><tspan
         x="0"
         y="0"
         id="tspan790">U</tspan></text><g
       id="g794"><g
         id="g796"
         clip-path="url(#clipPath800)"><text
           transform="matrix(1,0,0,-1,130.26,313.1603)"
           style="font-variant:normal;font-weight:normal;font-stretch:normal;font-size:6.48px;font-family:Arial;-inkscape-font-specification:ArialMT;writing-mode:lr-tb;fill:#000000;fill-opacity:1;fill-rule:nonzero;stroke:none"
           id="text804"><tspan
             x="0"
             y="0"
             id="tspan802">2</tspan></text></g></g><path
       d="m 163.5,307.04 h -62.52 l -0.24,0.12 -0.12,0.24 0.12,0.24 0.24,0.12 h 62.52 l 0.24,-0.12 0.12,-0.24 -0.12,-0.24 z m -56.7,-3.48 -6.54,3.84 6.54,3.84 h 0.3 l 0.24,-0.18 v -0.24 l -0.18,-0.24 -6,-3.48 v 0.6 l 6,-3.48 0.18,-0.24 v -0.24 l -0.24,-0.18 h -0.3"
       style="fill:#000000;fill-opacity:1;fill-rule:nonzero;stroke:none"
       id="path806" /><path
       d="m 309,383.54 h -27 l -0.24,0.12 -0.12,0.24 0.12,0.24 0.24,0.12 h 27 l 0.24,-0.12 0.12,-0.24 -0.12,-0.24 z m -21.18,-3.48 -6.54,3.84 6.54,3.84 h 0.3 l 0.18,-0.18 0.06,-0.24 -0.18,-0.24 -6,-3.48 v 0.6 l 6,-3.48 0.18,-0.24 -0.06,-0.24 -0.18,-0.18 h -0.3"
       style="fill:#000000;fill-opacity:1;fill-rule:nonzero;stroke:none"
       id="path808" /></g></svg>
